<?xml version="1.0" encoding="UTF-8"?>
<svg id="Layer_2" data-name="Layer 2" xmlns="http://www.w3.org/2000/svg" viewBox="0 0 97.16 97.16">
  <defs>
    <style>
      .cls-1 {
        fill: none;
        stroke: #000;
        stroke-miterlimit: 10;
        stroke-width: 4.35px;
      }
    </style>
  </defs>
  <g id="Layer_1-2" data-name="Layer 1">
    <path class="cls-1" d="m65.09,6.64c1.39-3.37,5.08-5.17,8.59-4.2l15.95,4.35c3.15.87,5.35,3.73,5.35,7,0,44.84-36.36,81.2-81.2,81.2-3.26,0-6.13-2.19-7-5.35l-4.35-15.95c-.96-3.52.84-7.19,4.21-8.59l17.4-7.25c2.95-1.23,6.38-.38,8.39,2.1l7.33,8.94c12.76-6.04,23.09-16.37,29.13-29.13l-8.94-7.31c-2.48-2.03-3.33-5.44-2.1-8.39l7.25-17.4v-.02Z"/>
  </g>
</svg>