<?xml version="1.0" encoding="UTF-8"?>
<svg id="Layer_2" data-name="Layer 2" xmlns="http://www.w3.org/2000/svg" viewBox="0 0 1020.21 334.29">
  <defs>
    <style>
      .cls-1 {
        fill: #15210d;
        stroke-width: 0px;
      }
    </style>
  </defs>
  <g id="Layer_1-2" data-name="Layer 1">
    <g>
      <g id="path2384">
        <path class="cls-1" d="m516.38,160.68c-.53-.23-1.49-.65-2.13-.93-1.77-.77-6.08-5.34-6.81-7.23-.6-1.54-.75-1.66-2.27-1.77-1.51-.11-1.69-.25-2.36-1.78-.49-1.11-.79-2.89-.91-5.4-.17-3.72-.17-3.74.78-3.98,1.07-.27,1.42-.05,1.51.93.53,5.84.64,6.28,1.73,7.06,1.18.84,1.93.99,1.93.39,0-.21-.24-.39-.54-.39-.71,0-.92-.7-.64-2.13.17-.91.45-1.19,1.27-1.28.86-.1,1.13-.4,1.47-1.65.28-1.06.62-1.52,1.11-1.52,1.07,0,1.13.24.65,2.62-.39,1.92-.36,2.48.25,4.15.92,2.54.88,2.91-.27,2.91-.53,0-.97.1-.97.21,0,.63,1.27,2.47,2.52,3.66l1.43,1.36-.22-1.55c-.12-.85-.34-2.77-.48-4.26-.14-1.49-.5-3.39-.79-4.21-.63-1.79-.68-3.2-.12-3.54.66-.41,1.4.49,1.91,2.3.47,1.67,2.44,4.49,3.14,4.49.5,0,.45-1.3-.06-1.81-.29-.29-.3-.5-.01-.67.25-.16.11-.55-.38-1.04-.72-.72-.77-1.12-.57-4.56.12-2.07.4-4.63.62-5.68.22-1.05.49-2.7.61-3.66.33-2.84.51-3.39,1.17-3.64.87-.33,1.7.44,1.7,1.59,0,1.08.64,2.44,1.14,2.44.19,0,.46-.74.61-1.65.15-.91.38-1.82.52-2.03.32-.5.38-1.69.39-7.55,0-4.26-.08-4.93-.74-5.63-.41-.44-.86-1.36-1-2.04-.21-1.06-.14-1.24.53-1.24.43,0,1.05.39,1.38.87l.61.87.02-1.05c.01-.58-.24-1.81-.55-2.74-.44-1.29-.49-2.2-.21-3.89.41-2.53.62-2.97,1.38-2.97.99,0,1.36,1.31.72,2.54-.64,1.24-.47,3.06.4,4.25.5.68.56.59.82-1.12.15-1.02.19-2.42.07-3.12s-.05-1.52.13-1.82c.28-.45.44-.41.92.23.95,1.25.71,3.13-.75,5.95-.75,1.44-1.36,3.19-1.36,3.88s-.19,1.61-.42,2.04c-.32.6-.28.93.19,1.46.34.37.61,1.31.61,2.09,0,1.89,1.4,6.97,2.58,9.34.52,1.05,1.57,2.76,2.33,3.79,1.1,1.5,1.48,1.79,1.92,1.43.82-.68.67-1.13-.95-2.66-1.09-1.04-1.56-1.85-1.75-3.06-.14-.91-.16-1.81-.04-2.01.39-.64.95-.39.95.42,0,1.36,1.04,3.35,1.87,3.57,1.17.31,1.25,0,.38-1.49-.43-.73-.68-1.59-.56-1.9.36-.95,1.35-.66,1.99.58.33.64.84,1.16,1.14,1.16s1.47.72,2.6,1.61c1.14.88,2.31,1.8,2.61,2.03.46.36.48.29.1-.42-.63-1.17-.56-2.45.12-2.45.31,0,.74.32.94.71.21.39,1.13,1.22,2.05,1.84.92.62,1.78,1.29,1.92,1.47.14.19.83.24,1.55.11.72-.13,2.43-.05,3.82.18,7.32,1.21,9.05.95,11.72-1.73,1.33-1.33,2.83-4.02,2.46-4.4-.12-.12-1.06.55-2.1,1.48-1.04.93-2.31,1.9-2.82,2.14-3.21,1.53-3.99,1.75-5.33,1.52-.78-.13-2.28-.39-3.35-.58-3.39-.59-6.4-1.69-9.49-3.5-.32-.19-1.16-.55-1.86-.81-1.79-.67-1.52-1.68.5-1.85,1.4-.11,2.11-.56,2.13-1.31,0-.15-.23-.19-.52-.08-.29.11-1.28-.06-2.21-.38-.93-.32-1.78-.5-1.88-.39-.1.1-.16.75-.11,1.43.04.68-.09,1.5-.28,1.81-.31.48-.5.49-1.35.03-.55-.29-.99-.83-.99-1.19s-.26-.88-.59-1.15c-1.15-.95-2.39-4.43-1.73-4.83.56-.35,1.55.51,1.55,1.34,0,.98,1.46,2.2,1.99,1.66.31-.31.22-.72-.31-1.52-1.58-2.34-2.45-5.09-2.45-7.78,0-.91-.22-2-.48-2.42-.69-1.1.07-2.16,1.44-2.01.97.11,1.03.03.8-1.01-.23-1.04.6-5.85,1.31-7.63.91-2.28,1.19-3.84,1.19-6.68v-3.14l-1.71-2.01c-1.47-1.73-1.93-3.07-1.05-3.09.14,0,.49-.16.78-.34.44-.28.41-.54-.18-1.54-.56-.96-.61-1.3-.23-1.68.73-.73,1.67.05,2.72,2.25.5,1.04,1.17,2.19,1.49,2.55.74.82,1.79.51,1.33-.4-.18-.35-.44-1.26-.58-2.02-.14-.78-.84-2.02-1.6-2.86-.74-.81-1.35-1.63-1.35-1.81,0-.48,1.7-.42,2.2.08.28.28.5.29.66.03.13-.21-.39-1.44-1.15-2.73s-1.28-2.52-1.14-2.74c.45-.74,1.32-.42,2.72.98.85.85,1.71,1.35,2.24,1.31,1.76-.14,1.89-.03,1.76,1.44-.08.88.06,1.48.36,1.58.26.09.48-.12.48-.45s.35-.96.77-1.39c.43-.43.6-.77.39-.77s-.39-.67-.39-1.48-.1-1.59-.23-1.72c-.49-.49-1.32.23-1.32,1.13,0,.8-.11.88-.73.55-.4-.21-.84-.83-.98-1.37-.26-1.03-.97-1.23-2.17-.59-.59.32-1.07.09-2.59-1.22-1.02-.88-1.92-1.84-1.99-2.13-.2-.85,1.02-1.05,2.1-.34,1.56,1.02,1.56.41,0-1.93-1.39-2.09-1.51-2.9-.46-2.9.68,0,3.03,2.95,3.7,4.65.54,1.37,2.06,3.1,2.73,3.1.8,0,.3-2.08-.99-4.09-.75-1.17-1.36-2.37-1.36-2.67s-.17-.66-.39-.79c-.21-.13-.39-.57-.39-.96s-.78-1.37-1.74-2.15c-2.12-1.74-2.32-2.7-.48-2.37.69.13,1.69.35,2.22.51.77.22.56-.1-1.02-1.63-1.09-1.05-2.65-2.49-3.47-3.2-1.43-1.24-1.46-1.31-.75-1.84.41-.3,1.13-.55,1.6-.55s.95-.26,1.08-.58c.12-.32.49-.58.82-.58s.59-.17.59-.39c0-.62-1.55-.45-1.8.19-.16.42-.83.58-2.48.58-2.19,0-2.85-.33-2.88-1.43,0-.26-.65-1.14-1.42-1.96-1.09-1.16-1.33-1.64-1.05-2.15.49-.88,1.22-.83,2.11.16.41.45,1.78,1.33,3.05,1.95l2.31,1.12.66-.88c.57-.75,1.03-.88,3.11-.89,2.4-.01,6.89-1.44,6.89-2.19,0-.46-.23-.4-1.64.46-.7.43-1.92.77-2.72.77-1.19,0-1.45-.14-1.45-.77,0-.83.88-1.15,3-1.08,1.58.05,2.98-.64,4.84-2.37,1.82-1.7,1.9-2.41.12-1.05-1.3.99-2.93,1.36-2.93.67,0-.19.83-.88,1.84-1.53,2.74-1.76,4.25-3.51,4.8-5.56.43-1.6.41-1.91-.17-2.55-.85-.93-.86-.88.51-2.41,1.56-1.74,1.53-2.38-.07-1.92-1.37.39-2.35-.1-2-1.02.12-.3.03-.55-.18-.55-.38,0-1.48,1.24-2.87,3.22-.36.52-1.31,1.28-2.11,1.7-1.92,1-2.21,1.78-.45,1.22,2.05-.65,3.41-.83,3.41-.44,0,.55-2.02,2.32-2.97,2.6-.46.14-1.05.51-1.31.82-.39.47-.29.57.64.57,1.32,0,2.27.53,1.94,1.06-.13.21-1.02.58-1.99.82-1.98.5-2.3,1.35-.78,2.05,1.12.51,1.16.68.43,1.68-.65.89-2.81.9-6.21,0-1.97-.51-2.36-.51-3.33-.01-2.72,1.41-3.34.02-.86-1.91.98-.76,1.93-1.39,2.1-1.39s.32-.25.32-.55c0-.73-1.05-.93-2.66-.5-1,.26-1.45.21-1.9-.25-.49-.49-.51-.7-.1-1.19.27-.33.8-.6,1.17-.6.96,0,1.42-3.34.59-4.26-.91-1-.69-1.79.68-2.48,2.15-1.09,3.9-2.12,4.13-2.45.12-.17,1.1-1,2.16-1.84,1.06-.84,3.18-2.75,4.71-4.25,7.48-7.35,8.65-8.19,8.65-6.19,0,1.16-1.01,3.27-1.57,3.27-.46,0-2.69,3.43-2.69,4.14,0,1.18,1.67-.03,2.78-2.01.36-.64.97-1.22,1.36-1.3.97-.19,1.67-.81,1.67-1.48,0-.31.42-1.11.92-1.79,1.58-2.11,2.3-3.87,2.4-5.87.06-1.06.02-2.06-.08-2.22-.1-.16-1.53.85-3.16,2.24-1.64,1.4-3.39,2.88-3.9,3.3-.91.75-2.73,1.74-7.98,4.32-7.09,3.49-13.36,8.06-13.36,9.75,0,.34-.7,1.72-1.55,3.07-.85,1.35-1.55,2.84-1.55,3.32,0,.99-1.07,3.08-1.94,3.78-.7.57-2.96.65-3.29.11-.13-.21.18-.55.7-.75,1.69-.64,1.54-3.13-.2-3.13-1.21,0-.76-.72.53-.85.68-.07,1.3-.35,1.4-.63.13-.4-.4-.49-2.37-.4-1.39.06-2.67-.02-2.84-.19-.64-.64.96-1,3.45-.78,2.2.2,2.61.14,2.61-.36,0-.75-.55-.96-3.47-1.29-1.3-.15-2.75-.57-3.22-.93-.69-.53-1.61-.66-4.6-.63-2.06.02-3.87.17-4.03.33-.56.56-1.69.28-2.13-.54-.44-.82-.54-.83-9.02-.6-4.72.13-8.92.32-9.35.42-.43.1-1.25.29-1.84.41-1.16.24-1.47.98-.41.98.52,0,.44.22-.39,1.09-1.3,1.36-1.34,1.84-.08,1.01.89-.58.98-.58,1.2,0,.13.35.02.89-.25,1.22-.4.48-.36.69.25,1.14,1.08.82,2.38.72,2.67-.2.37-1.16,1.84-1.96,3.73-2.05,1.32-.06,1.7.07,1.8.6.09.44-.11.68-.57.69-1.06.02-2.15,1-1.99,1.8.18.96,1.55,1.08,3.58.31,3.53-1.35,14.13.62,14.18,2.63,0,.26.34.87.74,1.35.6.72,1.12.87,2.92.87s2.17.1,2.07.66c-.16.81-2.68,1.41-4.5,1.08-.7-.13-1.64-.65-2.09-1.17-1-1.15-1.3-.99-1.6.87-.3,1.86-3.05,4.92-4.16,4.63-.41-.11-.84-.04-.96.16-.43.69-2.62.33-5.08-.84-1.38-.66-2.59-1.11-2.7-1-.25.25.98,2.19,1.92,3.04.73.66,3.4.71,6.89.12,1.51-.25,2.52.41,1.25.82-.39.12-1.05.39-1.48.59-.43.2-1.73.43-2.9.51-1.42.1-2.13.31-2.13.66,0,.82-1.35.85-2.26.05-.46-.4-1.29-.95-1.84-1.23-1.32-.66-2.38-2.48-2.09-3.63.17-.68-.06-1.16-.95-1.95-1.19-1.06-2.35-1.38-2.35-.66,0,.63-1.55.44-1.81-.22-.18-.48-.56-.55-1.83-.33-.88.15-1.86.25-2.18.21-.32-.03-1.69-.05-3.04-.04-2.91.02-3.12-.67-.44-1.45.93-.27,1.87-.67,2.08-.88.5-.5,2.06-.5,2.37,0,.13.22,1.37.37,2.74.34,1.83-.04,2.69.12,3.2.58.38.35.89.63,1.14.63s.78.37,1.2.82c1.1,1.18,1.64.79,1-.72-.32-.75-.97-1.42-1.62-1.67-2.65-.99-4.29-2-4.69-2.88-.24-.52-1.05-1.21-1.8-1.52-.75-.31-1.37-.73-1.37-.93s-.74-1.08-1.64-1.96c-1.56-1.52-1.76-1.59-4.04-1.59-2.13,0-2.49.11-3.2,1.02-.58.73-.8,1.58-.8,3.03,0,2.68,1.1,3.81,3.77,3.85,1.43.03,1.87.19,1.97.71.11.59-.19.68-2.26.68s-2.59-.16-3.61-1.01c-1.73-1.44-2.58-3.18-2.13-4.36.23-.59.22-1.08-.01-1.32-.65-.65-3.04.09-4.67,1.45-.86.72-1.73,1.37-1.93,1.44s-1.16,1.31-2.12,2.76c-2.61,3.9-3.77,8.52-1.64,6.53,2.47-2.32,7.49-3.41,10.74-2.33,2.04.67,4.61,3.76,4.61,5.53,0,1.23,2.2,1.73,8.74,1.96,8.2.3,14.17,2.06,19.13,5.65,2.24,1.63,3.55,4.51,3.15,6.97-.36,2.27-1.66,4.09-3.14,4.42-.63.14-1.25.41-1.37.61-.42.69-2.61.38-5.79-.82-3.54-1.33-9.48-1.84-12.11-1.04-4.77,1.46-7.37,1.64-11.51.81-1.57-.31-5.78-2.33-6.38-3.05-.73-.89-2.61-.75-2.91.21-.18.57.02,1.01.75,1.58.55.43,1.25,1.04,1.55,1.34.3.3.73.55.95.55s1.15.41,2.06.91c2.59,1.42,5.23,2,9.07,2,3.29,0,3.59-.07,4.31-.95.73-.9.85-.92,2.37-.47.88.26,1.82.35,2.08.18.57-.36,1.85-.19,2.47.32.25.2.86.26,1.37.13.51-.13,1.44-.04,2.07.2.92.35,1.05.34.66-.06-.27-.27-.48-.72-.48-.99,0-.57,1.39-.69,1.72-.15.12.19.79.35,1.5.35s1.95.35,2.75.79c.81.43,1.72.69,2.03.57.31-.12.98,0,1.5.28.73.39,1.05.4,1.5.02.42-.35.78-.36,1.34-.06.96.51,1.33.53,1.03.05-.25-.4.92-1.14,1.54-.97.21.06.87.21,1.45.34,1.42.31,1.36.99-.1.99-.73,0-1.16.2-1.16.53,0,.73.59,1.13,3.19,2.16,3.35,1.33,2.62,2.18-.95,1.11-1.07-.32-1.61-.33-1.79-.05-.14.23-1.31.39-2.59.36-2.01-.04-2.64-.25-4.55-1.52-1.22-.81-2.22-1.64-2.22-1.84,0-.53-.9-.45-1.72.15-.63.46-.65.63-.17,1.62.29.61,1.06,1.39,1.7,1.74.64.35,1.39,1.1,1.67,1.67.34.7.81,1.04,1.45,1.04,1.15,0,1.25.98.31,2.96-.47.99-.85,1.31-1.45,1.22-.47-.07-.86-.45-.92-.89-.29-2.06-1.02-3.68-1.66-3.68-.37,0-.78.28-.91.62-.34.88-1.39-.03-1.39-1.21,0-1.82-.94-1.84-2.55-.05-1.01,1.12-1.97,1.78-2.87,1.96-.75.15-2.03.47-2.85.71-1.22.35-1.36.48-.77.71.4.16,1.37.3,2.15.31.79.01,1.53.19,1.65.38.4.65-.25,1.59-1.28,1.82-2.81.64-4.2,1.36-5.92,3.07-1.03,1.03-1.88,2.01-1.88,2.19,0,.72,1.15.7,2.56-.06.82-.44,1.67-.8,1.88-.8.22,0,1.14-.72,2.06-1.6,1.25-1.19,1.78-1.49,2.11-1.16.24.24.79.44,1.22.44.65,0,.53.25-.75,1.57-.84.86-1.96,1.67-2.5,1.8-.53.13-1.49.49-2.11.81-1.22.61-6.01,5.45-6.02,6.07,0,.2-.47.85-1.04,1.45-1.16,1.22-.97,1.84.36,1.14,2.36-1.26,2.85-1.64,3.41-2.62.75-1.32,1.45-1.58,1.8-.66.15.39.54.93.87,1.19.54.42.49.57-.36,1.25-.53.42-1.39.77-1.91.78-1.25.01-3.76,2.74-5.23,5.68-.63,1.25-1.71,3.18-2.42,4.29-.71,1.11-1.28,2.11-1.28,2.23,0,.55,1.23.11,2.09-.76,1.11-1.11,1.6-1.21,1.92-.39.14.36-.29,1.05-1.12,1.8-.74.67-1.34,1.43-1.34,1.69s-.26.69-.58.95c-.32.27-.58.87-.58,1.34,0,1.34-1.54,5.74-2.31,6.6-1,1.12-2.35,4.4-1.92,4.66.62.38.42.81-1.25,2.67-1.45,1.62-4.88,3.7-6.1,3.7-.78,0-.28-1.34.55-1.47,1.47-.24,3.87-1.56,4.98-2.72,1.52-1.6,1.17-2.3-.53-1.09-2.44,1.74-6.76,4.03-8.45,4.49-1.24.33-1.61.6-1.44,1.04.12.32.23,1.12.23,1.77v1.19l2.42-.24c3.76-.37,9.58-2.7,9.58-3.83,0-.25.45-1.1.99-1.89.86-1.24.93-1.54.5-2.22-.38-.6-.39-1-.05-1.68.24-.49.64-1.55.88-2.34.49-1.61,1.03-2.13,1.61-1.55.26.26.22.66-.12,1.19-.72,1.16-.1,1.5.95.52.49-.46,1.09-.84,1.33-.84,1.05,0,.75.83-.86,2.39-.96.92-1.74,1.96-1.74,2.3,0,.34-.35.93-.78,1.32-1.5,1.36-.43,1.91,1.39.72.75-.49,1.08-.53,1.44-.18.31.31.33.55.06.74-1.91,1.29-3.27,2.89-3.27,3.85,0,1.6,3.78-1.07,6.26-4.44,1.11-1.5,1.76-2.04,2.46-2.04s.96.21.96.75c0,.41-.17.86-.39.99-.6.37-.48,2.52.15,2.52s2.96-2.81,3.65-4.39c1.77-4.07,4.74-6.59,4.17-3.55-.38,2.03.61,1.76,2.51-.68.87-1.12,1.92-2.43,2.33-2.91.41-.48.74-.95.74-1.05,0-.54,3.3-4.47,3.75-4.47,1.03,0,.97,1.15-.17,3.18-2.19,3.92-2.72,5.97-3.14,11.93-.22,3.09-.51,5.92-.65,6.29-.65,1.7,1.73-.1,2.73-2.07.98-1.94,1.75-2.69,2.74-2.69.89,0,1.51-1.2,1.79-3.48.07-.55.37-.97.7-.97.91,0,.93,1.99.03,3.44-.44.71-.8,1.54-.8,1.83,0,.29-.62,1.06-1.38,1.7-1.13.95-1.46,1.58-1.84,3.48l-.46,2.32-1.65-.12c-1.33-.1-1.89.08-2.86.89-.91.77-1.55.99-2.6.9-1.77-.15-2.04-1.26-.7-2.87,1.58-1.89,1.91-2.87,2.07-6.12.09-1.72.31-4.09.49-5.26.18-1.17.26-2.2.18-2.29-.09-.09-.95.63-1.91,1.59-.97.97-2.44,2.09-3.28,2.49-.84.4-1.53.86-1.53,1.02,0,.16-.57.94-1.26,1.74-.69.8-1.45,1.8-1.68,2.23-.99,1.8-3.41,2-4.05.33-.19-.5-.57-.92-.85-.92-.45,0-2.12.97-2.61,1.53-.53.59-3.51,2.7-5.17,3.66-1.57.91-2.04,1.02-2.81.67-.9-.41-1.33-1.99-.54-1.99.21,0,.39-.34.39-.75,0-.66-.15-.7-1.25-.39-.69.2-2.01.72-2.95,1.16-1.37.64-2.49.8-5.63.82-4.63.02-6.66-.63-7.07-2.26-.27-1.07.56-2.07,1.71-2.07s.17-1-1.87-2.02c-1.88-.94-2.31-1.39-3.95-4.24-1.66-2.88-1.84-3.43-1.84-5.61,0-4.98,1.99-7.28,7.82-9.06,2.32-.71,3.04-.53,3.52.86.24.69-.54,1.58-1.21,1.4-.74-.2-3.16,2.42-3.23,3.5-.24,3.99.3,5.76,2.4,7.77,1.76,1.68,3.91,2.14,6.84,1.45,4.88-1.14,6.78-2.91,8.81-8.19.57-1.49,1.29-3.32,1.59-4.07.94-2.34.9-2.49-.76-2.59-1.9-.12-2.75-1.15-1.68-2.03.27-.22,1.07-.86,1.78-1.43.71-.57,1.45-1.4,1.65-1.85.2-.44.95-1.59,1.68-2.55,1.74-2.29,1.73-2.71-.07-2.6-1.24.07-1.47-.04-1.57-.78-.08-.54.27-1.25.92-1.9,1.12-1.12,5.98-7.39,5.98-7.71,0-.11-.84-.09-1.86.05-1.43.19-1.97.11-2.36-.36-.58-.69-.24-2.19.5-2.19.27,0,1.47-.85,2.65-1.89,1.19-1.04,3.26-2.56,4.6-3.37l2.44-1.48-1.73-.74c-2.27-.97-3.08-1.73-3.08-2.85,0-1.06,1.44-1.83,2.22-1.19.26.21,1.05.27,1.74.13.69-.14,2.26-.39,3.48-.54,2.65-.34,3.17-.76,2.84-2.28-.2-.9-.67-1.32-2.27-2.05-2.15-.97-2.71-1-9.95-.55-3.92.24-7.33-.14-9-1.02-.37-.19-.95-.35-1.3-.35-.91,0-4.87-2.54-6.35-4.06-1.18-1.22-1.26-1.45-1.02-3.13.15-1.1.09-2.02-.16-2.32-.31-.38-.15-.63.64-1.05,1.76-.92,5.58.35,5.58,1.87,0,.26.3.57.68.69.37.12,1.72.64,3,1.17,3.04,1.26,9.49,1.82,9.49.84,0-.88-.75-2.18-1.12-1.95-.17.11-1.25-.17-2.4-.61-7.27-2.79-13.19-4.2-17.7-4.21-2.32,0-2.83-.36-2.91-1.97-.06-1.3-.05-1.31,1.78-1.43,1.29-.08,1.84-.28,1.84-.68,0-.66,1.58-.76,2.2-.14.27.27,2.6.42,6.37.43,3.27,0,6.82.16,7.88.35,1.06.19,3.24.52,4.84.73,4.11.55,6.81,1.06,9.49,1.78,4.26,1.15,4.39,1.15,4.67,0,.29-1.14-.67-2.54-1.73-2.54-.34,0-1.08-.24-1.64-.54-1.28-.67-5.45-1.11-10.98-1.16-5.2-.05-6.26-.55-8.52-3.97-2.7-4.1-5.06-5.32-8.36-4.34-1.63.49-3.45,2.36-3.45,3.56,0,.35-.49,1.18-1.09,1.85l-1.09,1.21-1.14-.98c-1.1-.95-1.14-1.1-1.1-4.14.02-1.78.23-3.34.48-3.59.24-.24.44-.72.44-1.06,0-1.02,2.86-5.1,4.89-6.97,1.74-1.61,3.16-2.42,9.09-5.18,1.27-.59,3.52-1.19,5.42-1.44,1.79-.23,3.6-.64,4.03-.9,2.45-1.52,8.17-2.27,17.54-2.31l7.86-.03,1.54-2.42c.85-1.33,2.49-3.42,3.66-4.64,1.17-1.22,2.12-2.32,2.12-2.45s.48-.47,1.06-.76c.59-.29,2.25-1.28,3.69-2.2,1.44-.91,2.9-1.66,3.23-1.66s1.07-.31,1.63-.69c.57-.38,1.98-1.2,3.14-1.81,2.5-1.32,3.68-2.27,6.79-5.48,1.92-1.98,2.46-2.34,3.13-2.08.84.32.87.96.57,10.88-.02.56-.46,1.64-.98,2.4-1.35,1.99-1.85,3.97-1.14,4.56.44.36,1.47,0,5.09-1.76,5.73-2.79,10.58-6.05,12.63-8.49,3.18-3.77,4.18-4.55,5.66-4.43q1.36.11,1.22,1.86c-.07.96-.31,1.96-.53,2.22s-.3.73-.18,1.04c.3.79-.39,3.2-1.56,5.42-.96,1.81-.97,1.92-.31,2.41.66.48.63.63-.52,2.8-.69,1.29-1.22,2.87-1.22,3.61s-.26,1.66-.57,2.08c-.84,1.12-.71,1.72.37,1.72,1.27,0,1.25.89-.03,1.73-.55.36-.9.76-.77.88.13.13-.01.5-.3.84-.29.34-.64,1.43-.77,2.43-.13,1-.6,2.83-1.05,4.07-.45,1.23-.96,2.83-1.14,3.54s-1.03,2.13-1.9,3.17c-.87,1.03-1.58,2.04-1.58,2.24,0,.82-1.7,2.43-3.31,3.15-1.83.81-2.16,1.51-1.03,2.21.38.24.94,1.34,1.24,2.44.3,1.11.69,2.1.86,2.2.17.11.31.58.31,1.06s.17,1.04.39,1.25c.67.67,1.16,6.09.77,8.51-.37,2.26-.79,2.86-2.03,2.87-.68,0-.72.64-.11,2.04.55,1.27-.38,8.83-1.33,10.81-.27.57-1,1.25-1.61,1.5-.91.38-1.12.71-1.17,1.87-.11,2.67-.2,3.35-.67,5.56-.26,1.22-.64,2.32-.84,2.44-.2.12-.36.66-.36,1.19,0,1.75-1.06,3.25-2.29,3.25-.99,0-1.13.16-1.31,1.45-.11.8-.46,2.58-.78,3.95-.64,2.73-.52,4.97.34,6.64,1.09,2.11.52,3.57-1.39,3.57h-1.24l.22,1.87c.22,1.88,1.62,4.72,2.88,5.86.37.34,1.92,1.22,3.43,1.97,3.01,1.49,3.56,2.21,2.69,3.54-.51.78-.5.93.09,1.43,1.41,1.2,4.06,1.92,6.14,1.66,1.8-.22,2.03-.17,2.26.55.32,1,.79,1,3.79,0,2.76-.92,4.83-2.84,6.45-5.96.55-1.06,1.48-2.19,2.08-2.52,1.01-.55,1.13-.54,1.64.15.37.5.48,1.27.34,2.32-.24,1.79-1.95,6.3-2.74,7.22-.29.34-.52.77-.53.97,0,.2-1.17,1.4-2.58,2.68-1.41,1.28-3.15,2.88-3.86,3.57-1.74,1.68-3.48,2.07-9.36,2.1-3.87.02-5.25-.11-6.19-.6-.66-.34-1.34-.58-1.51-.53s-1.57-.56-3.11-1.35c-1.54-.79-2.91-1.44-3.04-1.44s-.12.45.02,1.01c.26,1.03-.3,2.1-1.09,2.08-.6-.02-4.5-3.58-4.5-4.12,0-.24-.25-.53-.56-.65-.67-.26-2.91-4.05-2.92-4.94,0-.72-1.39-2.1-1.65-1.63-.23.4-1.33,4.23-1.62,5.63-.12.58-.66,1.35-1.19,1.7-.91.6-1.02.59-1.75-.06-1.44-1.31-1.95.33-1.91,6.21.01,2.59.87,5.61,1.59,5.61.17,0,.51.36.75.8.35.66.26,1.05-.47,2.12-1.14,1.67-1.64,1.85-3.04,1.14-1.86-.96-2.42-.78-2.11.68.32,1.49,1.3,3.38,2.12,4.07,1.22,1.04,3.43,1.99,4.45,1.91,1.33-.1,2.14.95,1.51,1.95-.34.54-1.05.69-3.48.76-1.68.04-3.49-.11-4.02-.34Zm-6.58-14.26c0-.21-.27-.39-.6-.39s-.5.17-.36.39c.13.21.4.39.6.39s.36-.17.36-.39Zm40.46-7.55c0-.66-1.59-.65-2.14.01-.47.56-.38.62.81.5.73-.07,1.33-.3,1.33-.51Zm5.77-.97c1.01,0,2.49-.97,2.09-1.38-.15-.15-1.72-.25-3.49-.21-2.13.05-3.68-.13-4.61-.51-.77-.32-1.5-.48-1.63-.35s-.47.03-.77-.21c-.29-.24-1.65-.54-3.01-.66-3.54-.31-3.91-.42-5.06-1.5-.57-.54-1.74-1.08-2.61-1.22-2.64-.42-2.3-.02,3.43,4.15.76.55,1.87,1.12,2.45,1.27.96.23,1.06.16,1.06-.77,0-.98.07-1.01,1.52-.78.83.13,2.1.53,2.81.89,2.05,1.03,2.36,1.12,4,1.25.85.06,1.63.19,1.72.28.1.09.41.08.71-.04.29-.11.92-.21,1.4-.21Zm-94.24-7.16c0-.32-.17-.58-.39-.58s-.39-.22-.39-.48c0-.74-3.83-3.87-4.44-3.64-.9.34.17,2.03,1.62,2.55.79.29,1.27.72,1.27,1.15,0,.38.39.88.87,1.11,1.2.58,1.45.56,1.45-.11Zm-7.22-7.36c-.12-.32-.29-.58-.38-.58s-.15.26-.15.58.17.58.38.58.27-.26.15-.58Zm1.4-1.06c-.32-1.78-.26-3.36.19-5.03.33-1.25-.16-1.39-1.12-.33-.43.47-.52.83-.26.99.25.16.31,1.11.16,2.55-.17,1.59-.09,2.48.25,2.89.83,1,1.08.66.77-1.06Zm86.36-31.1c.14-.81.45-1.17,1.09-1.26,1.18-.17.87-1-.44-1.16-.8-.1-1.12.09-1.4.84-.2.53-.68,1.14-1.06,1.36-.67.38-.66.42.08.99,1.04.79,1.51.58,1.74-.77Zm1.16-6.93c0-.29.27-.8.59-1.12.53-.53.51-.64-.22-1.02-.6-.32-.95-.32-1.36.03-.66.55-.68.77-.17,2.11.38,1.01,1.16,1.02,1.16,0Zm-30.49-11.07c-.23-.86-.94-1.3-1.71-1.04-.31.1-.19.44.37,1,1.07,1.07,1.61,1.08,1.34.04Zm-13.31-.12c1.12-.62.52-1.14-.91-.79-.99.25-1.21.58-.73,1.07.35.35.56.31,1.63-.28Zm-7.12-3.72c.13-.21.07-.39-.15-.39s-.49.17-.63.39-.07.39.15.39.49-.17.63-.39Zm54.12-1.78c.27-.27-1.31-2.85-1.75-2.86-.48,0-.33.78.37,1.97.67,1.14.95,1.32,1.38.89Zm-38.03-2.94c1.53-1.13.84-1.54-2.08-1.23-2.07.23-2.25.18-2.13-.49.11-.62-.16-.75-1.71-.85-1.31-.08-1.84-.28-1.84-.69,0-.47.44-.53,2.48-.32,3.1.32,4.76-.02,4.09-.82-.35-.42-1.38-.55-4.2-.51-5.04.06-13.99-1.76-13.99-2.85,0-.22-.43-.31-.96-.21-.53.1-2.22.04-3.78-.14-5.32-.61-12.5-1.09-13.18-.88-1.12.35-.76.93.58.93.69,0,1.76.26,2.37.58.61.32,1.38.58,1.71.58s2.18.51,4.12,1.14c6.06,1.97,10.33,3.08,15.13,3.92,2.56.45,4.95.97,5.32,1.17.37.19,1.09.35,1.6.35s1.14.26,1.41.58c.75.9,3.68.75,5.05-.27Zm36.96-1.48c.16-.26.48-.26.97,0,.84.45,1.95.53,1.36.09-.21-.16-.65-.78-.96-1.4-.76-1.47-1.33-1.63-2.3-.66-.93.93-.98,1.24-.34,1.89.57.57.96.59,1.28.08Zm-38.27-.83c-.51-.3-.84-.29-1.14.01-.31.31-.12.42.71.42,1-.01,1.05-.06.43-.43Zm40.4-2.56c0-.68-.56-1.72-1.56-2.88-1.5-1.75-1.59-1.79-2.59-1.27-.75.39-1.18.42-1.54.12-.38-.31-.5-.27-.5.15,0,.54,1.51,1.46,2.38,1.46.68,0,3.43,2.35,3.43,2.94,0,.3.09.55.19.55s.19-.48.19-1.06Zm-41.04-1.26c0-.21-.43-.39-.95-.39s-1.05.17-1.18.39c-.14.23.25.39.95.39.65,0,1.18-.17,1.18-.39Zm33.07-3.33c.86-.33.77-.93-.14-.93-.81,0-1.32.51-.92.91.3.3.3.3,1.05.01Zm7.58.05c0-.1-.33-.72-.73-1.39-.4-.66-.65-1.52-.55-1.91.23-.89-1.22-1.44-2.03-.77-.82.68-.73.89,1.08,2.65,1.49,1.44,2.23,1.91,2.23,1.41Zm-44.14-1.75c-.75-.49-1.16-.49-1.16,0,0,.21.39.38.87.38.7,0,.76-.08.29-.38Zm4.89-10.26c.61-.32.95-.58.76-.58-.19,0-.08-.31.24-.68,1.07-1.22,1.14-2.28.28-4.12-.45-.97-1.16-1.86-1.56-1.99-.41-.13-.99-.49-1.31-.81-.43-.43-.76-.47-1.33-.17-.42.22-1.3.41-1.96.41-.76,0-1.59.37-2.25.98-.59.55-1.35.91-1.73.81-.37-.09-.68-.01-.68.18s.25.35.55.35c.78,0,1.26,3.07.56,3.57-.41.29-.39.33.1.18.39-.12,1.13.31,1.92,1.13,1.14,1.17,1.51,1.33,3.29,1.33,1.11,0,2.51-.26,3.12-.58Zm-4.58-1.72c-1.26-.99-2.14-3-1.56-3.58.6-.6,1.63-.09,1.63.81,0,1.17.76,1.38,1.68.46.67-.67.74-.96.38-1.53-.62-1,0-1.95.92-1.38.8.5,1.99,2.42,2.03,3.28.04.83-1.78,2.34-3.05,2.54-.66.1-1.41-.12-2.03-.61Zm37.05-.41c-.13-.21-.32-.39-.41-.39s-.17.17-.17.39.18.39.41.39.3-.17.17-.39Zm1.74-1.55c0-.21.52-.39,1.16-.39.77,0,1.16-.19,1.16-.58,0-.89-1.59-.68-2.9.4-1.1.9-1.12.95-.29.95.48,0,.87-.17.87-.39Zm-44.92-3.48c0-.21-.3-.38-.68-.38-.58,0-.59.06-.1.38.73.47.77.47.77,0Zm47.43-3.48c.13-.21-.12-.39-.56-.39s-.8.17-.8.39.25.39.56.39.67-.17.8-.39Zm3.1-2.32c.85-.62,2.42-1.72,3.48-2.44,1.06-.72,2.52-1.86,3.24-2.53s1.44-1.22,1.61-1.22c.31,0,2.71-3.54,2.71-4,0-.69-1.55-.12-2.81,1.03-.77.71-2.03,1.71-2.78,2.23-.87.59-1.38,1.25-1.38,1.78,0,1.08-.82,1.88-2.85,2.81-.89.41-1.95,1.1-2.35,1.54s-.89.8-1.08.8-.62.26-.94.58c-1.12,1.12,1.49.64,3.15-.58Zm-59.27-.98c.41-.31.64-.67.51-.8-.4-.4-1.84.25-1.84.83,0,.7.37.69,1.33-.03Zm57.79-.79c1.4-.76,2.79-1.62,3.08-1.91.55-.55.75-1.93.24-1.66-.16.08-1.1.53-2.08,1-.98.47-2.01,1.11-2.27,1.43-.27.32-.7.59-.97.59-.68,0-1.47,1.04-1.17,1.53.35.56.32.57,3.17-.97Zm-14.84-2.34c.39-.54.62-1.07.51-1.18-.23-.23-2.96.63-3.53,1.11-.61.51-1.76.35-1.76-.25,0-.31.3-.63.68-.73.37-.1,1.55-.4,2.61-.67,2.01-.51,3.37-1.23,4.54-2.39.38-.37.86-.68,1.07-.68s.39-.17.39-.39c0-.69-1.18-.42-3.32.75-2.26,1.24-4.82,1.91-4.82,1.26,0-.22.91-.68,2.03-1.04,3.38-1.07,4.81-2.68,1.59-1.78-2.23.62-5.75.53-6.32-.16-.35-.42-.67-.47-1.18-.19-.92.49-1.92.49-1.92-.02s1.07-.91,3.74-1.52c1.57-.36,2.16-.35,2.77.03.63.39,1.12.37,2.63-.11,1.68-.54,2.92-1.64,1.65-1.46-1.73.24-2.09-.64-.43-1.03,2.19-.52,4.28-1.71,5.65-3.23,1.71-1.9,1.85-2.68.26-1.5-.64.47-1.16,1-1.16,1.16,0,.51-2.21,1.49-3.35,1.49-.99,0-.87-.18,1.7-2.53,2.6-2.37,3.98-4.27,3.98-5.47,0-1.04-1.08-.48-3.14,1.61-1.46,1.5-3.08,2.61-5.38,3.72-9.23,4.45-9.67,4.72-11.71,7.12-1.08,1.28-2.36,2.69-2.84,3.15-.87.82-1.07,1.46-.98,3.14.04.84.19.87,3.43.85,1.93,0,4.05-.26,4.94-.57.85-.31,1.85-.56,2.23-.56,1.08,0,.79.66-.48,1.1-.64.22-1.16.55-1.16.72,0,.64,1.81,1.18,4.07,1.21,2.06.03,2.4-.08,3.04-.95Zm-11.75-2.4c0-.17.95-.51,2.12-.75,1.17-.24,2.74-.74,3.5-1.1,1.38-.65,2.04-.57,1.57.19-.77,1.24-7.19,2.73-7.19,1.67Zm36.32,2.94c.52-.52.63-1.86.15-1.86-.17,0-.7.52-1.17,1.16-.79,1.07-.8,1.16-.15,1.16.39,0,.92-.21,1.17-.46Zm-8.14-1.73c.58-.36,1.27-.91,1.54-1.24.58-.7.64-1.6.1-1.6-.42,0-3.49,2.85-3.49,3.25,0,.43.78.25,1.85-.41Zm-10.34-8.58c-1.08-.16-1.55.25-.81.71.35.21.77.17,1.12-.12.47-.39.42-.48-.31-.59Zm3.07-9.75c0-.21-.18-.39-.41-.39s-.3.17-.17.39c.13.21.32.39.41.39s.17-.17.17-.39Zm-33.1,132.43c-.52-.57-.64-1.18-.5-2.42.3-2.67,3.4-6.65,3.4-4.37,0,.29-.23.76-.52,1.05-1.17,1.17-1.49,2.34-1.23,4.42.28,2.23-.01,2.57-1.14,1.32Zm5.12.09c-.33-.37-.67-1.03-.74-1.45-.1-.59.11-.8.91-.9.98-.11,1.05-.25,1.16-2.32.09-1.73.26-2.23.79-2.33.6-.11.68.24.68,3.31,0,3.5-.31,4.37-1.57,4.37-.35,0-.91-.3-1.24-.68Zm.58-8.12c-.88-.31-.57-2.77.48-3.82.74-.74.97-1.37.97-2.69,0-1.83.34-2.11,1.34-1.11.65.65.56,2.24-.24,4.61-.93,2.71-1.49,3.38-2.55,3.01Zm-27.72-5.78c-.49-.49-.25-1.98.45-2.86.73-.9,1.61-.77,1.61.24,0,.31.26.56.58.56s.58-.17.58-.39c0-.51,1.05-.5,1.36,0,.13.22-.16.9-.65,1.53-.68.87-1.23,1.14-2.28,1.16-.76.01-1.5-.09-1.65-.24Zm44.13-.59c-.08-.28-.42-1.38-.77-2.45-.35-1.06-.64-2.33-.63-2.81,0-1,.84-1.15,1.55-.29.27.32.77.54,1.11.48.53-.09.63.33.63,2.61,0,2.52-.06,2.72-.87,2.83-.48.07-.93-.1-1.01-.39Zm-12.25-2.74c-.93-1.52-.96-1.98-.16-2.64.48-.39.77-.41,1.34-.06.46.29.81.31.96.07.13-.21.05-.38-.18-.38s-.41-.47-.41-1.03-.28-1.34-.62-1.72c-.7-.78-.43-1.51.56-1.51,1.24,0,1.6.85,1.6,3.74,0,4.57-1.45,6.22-3.1,3.52Zm-30.3-2.67c-.81-.46-.91-2.75-.14-3.39.4-.33.65-.3,1.02.15.27.32.9.59,1.41.59,1.09,0,1.12.12.28,1.38-.85,1.29-1.74,1.74-2.57,1.27Zm8.23-.15c-.38-.45-.39-.82-.06-1.55.44-.98,1.74-1.3,2.21-.55.17.28.42.26.8-.05.78-.65.73.55-.08,1.78-.71,1.08-2.12,1.26-2.87.36Zm33.36-3.19c-.23-.44-.23-.93.01-1.37.21-.38.42-2.37.46-4.44.07-3.61.11-3.76.97-3.89.84-.12.89-.01.83,1.94-.1,3.36-.06,3.64.47,3.11.45-.45,1.86-.66,1.86-.28,0,.1-.35.75-.77,1.45-.43.7-.77,1.54-.77,1.87,0,.78-1.41,2.3-2.13,2.3-.3,0-.72-.31-.92-.69Zm-22.75-.27c-.12-.31.15-1.16.59-1.88.96-1.55,1.04-2.85.22-3.75-.52-.57-.52-.71-.02-1.13.81-.68,2.11-.14,2.4.99.13.53.44.89.68.81.49-.17.39-2.94-.16-4.38-.25-.65-.17-1.06.28-1.51,1.03-1.03,1.8.15,1.97,3.01.19,3.29-.56,5.41-2.1,5.87-.64.19-1.44.85-1.79,1.45-.68,1.19-1.72,1.45-2.07.53Zm-22.69-3.2c-1.2-1.36.49-3.29,2.04-2.32.92.58.94.82.13,2.04-.74,1.13-1.36,1.21-2.18.28Zm11.46-1.06c-.44-1.15.17-1.74,1.78-1.74,1.25,0,1.56.14,1.56.7,0,.38-.21.91-.46,1.16-.66.66-2.61.58-2.88-.12Zm18.45-1.35c-.51-.32-.51-.48-.02-1.25.41-.64.54-1.97.49-4.85-.06-3.7-.01-3.97.69-3.97,1.22,0,2.03,2.05,1.82,4.59-.24,2.88-.63,4.36-1.35,5.18-.68.78-.83.8-1.63.3Zm19.18-3.59c-.08-.27-.26-1.31-.4-2.32-.19-1.38-.41-1.84-.91-1.84-.78,0-3.55-2.57-3.55-3.29,0-.27.37-.59.82-.71.62-.16.75-.39.53-.92-.58-1.37-.42-2.25.39-2.25.54,0,1.07.58,1.75,1.94.54,1.06,1.36,2.53,1.82,3.27,1.05,1.65,1.56,5.21.88,6.03-.58.7-1.13.74-1.34.09Zm-46.91-2.69c.14-.68.51-1.64.83-2.13.64-.98,1.73-1.2,1.73-.35,0,.35.27.47.77.34,1.13-.29.96.48-.45,2.03-.76.84-1.58,1.34-2.18,1.34-.87,0-.93-.11-.71-1.24Zm14.31.65c-.14-.36.02-.9.36-1.24.82-.82,1.91-.35,1.76.76-.15,1.08-1.75,1.44-2.11.48Zm18.66-2.19c-.09-.28-.25-1.3-.35-2.26-.1-.96-.24-2.09-.31-2.52-.1-.6.11-.8.95-.9l1.08-.12-.11,3c-.07,1.97-.28,3.05-.6,3.16-.27.09-.56-.07-.65-.36Zm3.67-1.07c-.64-1.2-.51-3.9.19-3.9.33,0,.69.26.82.58.12.32.64.58,1.15.58.73,0,.93.21.93.97,0,1.06-1.22,2.52-2.12,2.52-.31,0-.75-.34-.97-.75Zm13.15-.87c0-2.02-1.07-4.27-3.09-6.46-.86-.93-1.56-1.93-1.56-2.23,0-.64,1.77-.72,2.16-.1.19.31.35.3.55-.04.17-.27-.1-.88-.63-1.45-1.03-1.11-1.21-2.42-.34-2.42.32,0,1.12.49,1.79,1.08,1.14,1.02,1.22,1.26,1.32,4.16.06,1.69.29,3.87.52,4.82.43,1.82.22,4.26-.37,4.26-.19,0-.34-.73-.34-1.62Zm-25.56-.33c-.26-.48-.34-1.4-.2-2.15.22-1.19.37-1.31,1.56-1.31.72,0,1.41.15,1.52.33.27.44-1.39,3.66-1.97,3.84-.25.08-.66-.24-.91-.7Zm-6.96-3.66c0-.77.17-.99.68-.89.37.07.68.47.68.89s-.3.82-.68.89c-.51.1-.68-.13-.68-.89Zm12.39-5.41c-.94-2.85.42-4.25,2.03-2.09.71.95.72,1.08.13,2.23-.82,1.59-1.6,1.54-2.15-.13Zm9.31.41c-.55-.66-.67-2.9-.18-3.26.19-.14.35-.6.35-1.03,0-1.13,1.42-.99,2.02.19.62,1.23.64,3.58.04,4.18-.63.63-1.66.59-2.22-.09Zm-19-2.74c0-.32.26-.58.58-.58s.58.26.58.58-.26.58-.58.58-.58-.26-.58-.58Zm1.94-3.1c0-.32.26-.58.58-.58s.58.26.58.58-.26.58-.58.58-.58-.26-.58-.58Zm3.91-1.06c-.84-2.21-1.59-4.63-1.59-5.12,0-1.05.87-1.06,1.7-.02.6.75,1.12,1.02,1.8.92,1.03-.15,1.05-.02.53,2.77-.44,2.35-1.8,3.16-2.44,1.45Zm18.79-.88c-.65-.65-.77-1.06-.65-2.24.04-.39-.14-.96-.41-1.28-.38-.46-.37-.69.1-1.15.81-.81,1.61-.37,2.61,1.41,1.06,1.88.96,3.61-.21,3.78-.45.06-1.11-.17-1.45-.51Zm-11.51-2.61c-1.28-1.11-2.39-2.91-2.09-3.4.4-.65,1.67-.41,2.25.41l.55.79.21-.79c.24-.93,1.14-1.03,1.83-.21.32.39.39,1.15.22,2.32-.22,1.46-.4,1.75-1.11,1.74-.47,0-1.3-.39-1.85-.87Zm14.73-3.99c-.75-.55-1.36-1.36-1.39-1.84-.03-.47-.08-1.23-.1-1.69-.02-.52-.55-1.14-1.39-1.63-1.35-.79-1.84-1.99-.82-1.99.29,0,1.3.43,2.24.96,1.29.72,2.02,1.53,2.95,3.27.68,1.27,1.24,2.57,1.24,2.87,0,.44-.75,1.03-1.31,1.03-.05,0-.69-.44-1.42-.99Zm-10.4-2.98c-2.45-1.61-2.93-1.83-4.1-1.84-1.46-.02-3.01-1.15-2.56-1.87.26-.42.63-.36,1.91.29,1.77.9,3.55,1.05,4.24.35.35-.35.17-.7-.79-1.52-1.09-.92-1.16-1.09-.57-1.33.39-.16,1.08,0,1.63.36.52.34,1.22.62,1.55.62.38,0,.59.36.59,1.02,0,.83.1.93.55.56.43-.36.74-.26,1.45.46.5.5,1.43,1.25,2.07,1.65,1.53.97.46,1.24-1.56.39-1.84-.77-1.75-.8-1.48.56.21,1.03.13,1.16-.69,1.16-.51,0-1.52-.39-2.24-.87Zm9.65-3.44c-.91-.37-.93-.42-.27-.9.82-.6,2.98,0,2.98.85,0,.58-1.34.61-2.71.06Zm-17.78-1.85c-1.26-.33-1.43-1.04-.33-1.34.81-.23.83-.29.21-.65-.81-.48-.89-1.14-.14-1.14.85,0,1.17-2.55.45-3.58-.84-1.2-.75-1.84.27-1.86.78,0,.72-.15-.68-1.45-.85-.79-1.5-1.59-1.44-1.77.24-.74-.4-1.8-1.1-1.8-.41,0-1.02-.43-1.36-.95-.34-.52-1.26-1.15-2.04-1.4-2.61-.83-5.1-2-5.1-2.39,0-.23.43-.27,1.06-.11.59.15,1.85.36,2.81.46.96.1,2.73.7,3.93,1.32,1.2.63,2.46,1.14,2.81,1.14s.62.32.62.73.25.94.57,1.2c.31.26.68.85.83,1.31.14.46.67,1.33,1.18,1.93.89,1.06,1.17,2.2.67,2.7-.14.14-.27,1.56-.29,3.15-.04,2.57-.16,3.01-1.01,3.83-.71.67-1.22.85-1.91.68Zm13.89-.79c-.58-.43-1.79-.79-2.9-.86-2.34-.15-2.73-1.16-.56-1.48,2.93-.43,6.61,1.08,6.07,2.49-.31.82-1.39.75-2.6-.15Zm5.05-3.69c-1.01-1.04-1.21-1.46-.86-1.81.93-.93,3.71,1.61,3.01,2.74-.41.67-.75.52-2.15-.93Zm2.88-2.81c-.96-1.47-1.42-1.89-2.43-2.21-1.07-.34-.89-1.13.29-1.31,1.73-.25,4.08,2.13,3.66,3.72-.3,1.14-.67,1.09-1.52-.2Zm-6.95-.63c-.42-.29-1.11-.6-1.54-.68-1.35-.26-.93-1.31.49-1.24,1.49.07,3.19,1.07,3.19,1.89,0,.72-1.14.74-2.14.04Zm-.58-5.48c-1.34-1.37-1.6-1.83-1.19-2.09.87-.54,2.67.33,3.51,1.7,1.68,2.72.2,2.97-2.33.39Zm-6.57-.52c0-.19-.37-.44-.81-.55-1.27-.33-.46-1.16.88-.89,1.21.24,2.37,1.15,1.98,1.55-.37.37-2.05.28-2.05-.1Zm-7.39-2.47c-.94-.47-1.71-1.11-1.71-1.41,0-.87.74-.89,1.65-.04.46.43,1.18.78,1.61.78.99,0,1.34.57.68,1.11-.38.31-.95.2-2.22-.44Zm3.03-1.71c-.59-.09-1.06-.42-1.06-.72,0-.42.54-.56,2.16-.56,1.85,0,2.14.1,2.03.68-.13.71-1.19.91-3.12.6Zm10.56-1.47c-.39-.47-.36-.62.12-.81.95-.37,1.98-.02,2.12.71.17.86-1.55.93-2.25.1Zm-8.91-.97c-.38-.71-.29-.77,1.13-.77,1.63,0,2.44.63,1.54,1.2-.93.59-2.23.38-2.66-.42Zm-8.91-2.32c0-.21.17-.39.39-.39s.39.17.39.39-.17.39-.39.39-.39-.17-.39-.39Zm7.84-.59c-1.12-.52-2.03-1.14-2.03-1.36s.27-.92.59-1.55c.48-.93.84-1.14,1.91-1.14.73,0,1.43-.17,1.56-.39.36-.58,1.36-.47,1.36.15,0,.48-.68.85-2.89,1.58-.69.23-.66.31.39,1,.67.44,1.81.75,2.74.76,1.94,0,2.94.88,1.74,1.52-1.24.66-3.19.46-5.37-.56Zm-6.68-.96c0-.21.26-.39.58-.39s.58.17.58.39-.26.39-.58.39-.58-.17-.58-.39Zm1.76-1.13c-.29-.46.44-.92.96-.6.43.27.15.96-.39.96-.19,0-.44-.16-.56-.36Zm7.53-4.55c0-.36-.29-.97-.64-1.36-.83-.92-.4-1.34.9-.87,1.55.55,2.03,1.56,1.09,2.28-1,.76-1.35.75-1.35-.04Zm-38.7-2.35c-2.12-.26-3.16-2.35-1.59-3.19,1.23-.66,3.7-.49,4.42.31,1.14,1.26.56,3.25-.89,3.1-.33-.03-1.2-.13-1.93-.22Zm37.15-1.61c0-.19-.36-.26-.8-.14-.63.16-.78.05-.68-.52.1-.57-.07-.7-.77-.6-.65.09-.96-.1-1.12-.71-.18-.69-.39-.78-1.23-.54-.56.16-1.53.3-2.17.32-.91.02-1.16-.14-1.16-.74,0-.93-1.65-1.25-2.93-.57-.59.32-.96.33-1.25.03-.67-.67.8-1.98,2.21-1.98s3.07,1.02,2.69,1.63c-.18.29.47.34,2.16.14,1.88-.21,2.56-.15,3.06.3.35.31,1.07.63,1.61.7.74.1.95.34.88,1-.06.52.12.87.44.87.29,0,.75.26,1.01.58.41.5.3.58-.73.58-.66,0-1.21-.16-1.21-.35Zm-18.35-3.03c-.94-.94.49-2.4,2.36-2.41,1.36-.01,1.93.48,1.18,1.02-.95.69-3.31,1.62-3.54,1.39Z"/>
      </g>
      <g id="Layer_1-2" data-name="Layer 1-2">
        <g>
          <g>
            <path class="cls-1" d="m19.76,259.39c-6.41-3.29-11.32-7.76-14.67-13.42-3.39-5.66-5.08-11.93-5.08-18.84,0-7.39,1.93-13.89,5.76-19.59,3.83-5.69,9.15-10.07,15.89-13.18,6.74-3.12,14.34-4.68,22.71-4.68,3.83,0,7.59.31,11.22.92,3.66.61,6.61,1.49,8.91,2.64.68.31,1.08.58,1.22.81.1.24.2.85.31,1.83l1.49,15.22c0,.24-.2.37-.64.47-.41.07-.68-.03-.75-.34-1.63-4.85-4.58-9.29-8.88-13.32-4.3-4.03-9.83-6.03-16.61-6.03-5.29,0-10.13,1.36-14.47,4.03-4.34,2.68-7.76,6.54-10.27,11.59-2.51,5.02-3.73,10.84-3.73,17.45,0,6.98,1.36,13.35,4.1,19.08,2.71,5.73,6.61,10.23,11.62,13.52,5.02,3.29,10.81,4.95,17.35,4.95,3.29,0,5.86-.37,7.73-1.15,1.83-.78,3.19-2.14,4.03-4.13s1.25-4.91,1.25-8.74-.24-6.78-.68-8.34c-.47-1.56-1.49-2.64-3.05-3.15-1.56-.54-4.34-.81-8.24-.81-.47,0-.68-.31-.68-.92,0-.24.07-.44.17-.64s.24-.31.41-.31c6.37.37,11.49.58,15.32.58s7.83-.1,12-.34c.17,0,.31.1.41.31s.17.37.17.51c0,.54-.2.81-.58.81-1.53-.07-2.61.17-3.22.75-.61.58-1.02,1.76-1.22,3.52-.2,1.76-.27,4.85-.27,9.22,0,3.46.14,5.93.41,7.39s.41,2.37.41,2.78c0,.47-.07.78-.24.92-.17.17-.51.31-1.05.47-9.69,2.14-18.33,3.22-25.93,3.22-8.68,0-16.23-1.66-22.64-4.95v-.1Z"/>
            <path class="cls-1" d="m159.89,262.27c0,.47-.1.68-.34.68h-18.54c-1.76,0-5.05-3.08-9.86-9.22-4.81-6.13-10.61-14.74-17.45-25.79-1.69.17-2.98.24-3.93.24-1.69,0-3.69-.07-6-.24v25.69c0,2.37.2,4.1.64,5.19.41,1.08,1.22,1.8,2.41,2.2,1.19.37,3.08.58,5.69.58.17,0,.24.24.24.68s-.07.68-.24.68c-2.54,0-4.51-.03-5.86-.1l-8.54-.1-8.3.1c-1.46.07-3.46.1-6,.1-.24,0-.34-.24-.34-.68s.1-.68.34-.68c2.61,0,4.51-.2,5.69-.58s2-1.12,2.47-2.24.68-2.81.68-5.12v-53.38c0-2.3-.2-4-.64-5.08-.41-1.08-1.25-1.83-2.47-2.24-1.22-.41-3.12-.64-5.66-.64-.17,0-.24-.24-.24-.68s.07-.68.24-.68l6,.1c3.39.17,6.1.24,8.17.24,2.54,0,5.29-.1,8.3-.34.98-.07,2.2-.17,3.63-.24,1.42-.07,3.02-.1,4.78-.1,6.68,0,11.86,1.32,15.49,3.93,3.66,2.61,5.46,6.27,5.46,10.95,0,4.24-1.19,8.03-3.52,11.42-2.34,3.39-5.49,6.07-9.39,8.07,6.3,9.29,11.56,16.54,15.79,21.76s7.96,9.01,11.22,11.35c3.25,2.34,6.47,3.52,9.62,3.52.24,0,.34.24.34.68l.14-.03Zm-49.41-36.97c4.98,0,8.57-1.25,10.71-3.73,2.14-2.51,3.22-6.51,3.22-12.03,0-6.24-1.05-10.57-3.15-13.01-2.1-2.44-5.15-3.69-9.15-3.69-2.98,0-5.12.54-6.41,1.66-1.25,1.12-1.9,3.12-1.9,6.03v24.3c1.83.31,4.07.47,6.68.47Z"/>
            <path class="cls-1" d="m185.34,258.81c.37,1.08,1.19,1.8,2.37,2.2,1.19.37,3.08.58,5.69.58.24,0,.34.24.34.68s-.1.68-.34.68c-2.47,0-4.41-.03-5.86-.1l-8.54-.1-8.3.1c-1.46.07-3.46.1-6,.1-.24,0-.34-.24-.34-.68s.1-.68.34-.68c2.61,0,4.51-.2,5.69-.58s2-1.12,2.47-2.24.68-2.81.68-5.12v-53.38c0-2.3-.24-4-.68-5.08-.47-1.08-1.29-1.83-2.47-2.24s-3.08-.64-5.69-.64c-.24,0-.34-.24-.34-.68s.1-.68.34-.68l6,.1c3.39.17,6.13.24,8.3.24,2.37,0,5.25-.07,8.64-.24l5.76-.1c.24,0,.34.24.34.68s-.1.68-.34.68c-2.54,0-4.41.24-5.59.68-1.19.47-2,1.25-2.41,2.37s-.64,2.81-.64,5.12v53.1c0,2.37.2,4.1.58,5.19v.03Z"/>
            <path class="cls-1" d="m254,206.96s-.2.27-.64.34c-.41.07-.68,0-.75-.24-1.83-8.74-7.18-13.15-16-13.15h-4.61c-2.78,0-4.71.51-5.86,1.49-1.15.98-1.73,2.64-1.73,4.95v25.01h9.46c8.61,0,12.91-2.88,12.91-8.64,0-.14.24-.24.68-.24s.68.07.68.24l-.1,10.13c0,2.37.03,4.13.1,5.29l.1,6c0,.24-.24.34-.68.34s-.68-.1-.68-.34c0-6.54-4.41-9.79-13.25-9.79h-9.22v24.77c0,2.47.3,4.24.92,5.35s1.83,1.9,3.63,2.37c1.8.47,4.58.68,8.34.68.17,0,.24.24.24.68s-.07.68-.24.68c-3.15,0-5.59-.03-7.39-.1l-11.29-.1-8.4.1c-1.46.07-3.49.1-6.1.1-.24,0-.34-.24-.34-.68s.1-.68.34-.68c2.78,0,4.78-.2,6.03-.58,1.25-.37,2.14-1.12,2.61-2.24s.68-2.81.68-5.12v-53.31c0-2.3-.2-4-.64-5.08-.41-1.08-1.25-1.83-2.47-2.24s-3.12-.64-5.66-.64c-.24,0-.34-.24-.34-.68s.1-.68.34-.68h47.92c.78,0,1.15.34,1.15,1.05l.24,14.98.03-.03Z"/>
            <path class="cls-1" d="m314.83,206.96s-.2.27-.64.34c-.41.07-.68,0-.75-.24-1.83-8.74-7.18-13.15-16-13.15h-4.61c-2.78,0-4.71.51-5.86,1.49-1.15.98-1.73,2.64-1.73,4.95v25.01h9.46c8.61,0,12.91-2.88,12.91-8.64,0-.14.24-.24.68-.24s.68.07.68.24l-.1,10.13c0,2.37.03,4.13.1,5.29l.1,6c0,.24-.24.34-.68.34s-.68-.1-.68-.34c0-6.54-4.41-9.79-13.25-9.79h-9.22v24.77c0,2.47.3,4.24.92,5.35s1.83,1.9,3.63,2.37c1.8.47,4.58.68,8.34.68.17,0,.24.24.24.68s-.07.68-.24.68c-3.15,0-5.59-.03-7.39-.1l-11.29-.1-8.4.1c-1.46.07-3.49.1-6.1.1-.24,0-.34-.24-.34-.68s.1-.68.34-.68c2.78,0,4.78-.2,6.03-.58,1.25-.37,2.14-1.12,2.61-2.24s.68-2.81.68-5.12v-53.31c0-2.3-.2-4-.64-5.08-.41-1.08-1.25-1.83-2.47-2.24s-3.12-.64-5.66-.64c-.24,0-.34-.24-.34-.68s.1-.68.34-.68h47.92c.78,0,1.15.34,1.15,1.05l.24,14.98.03-.03Z"/>
            <path class="cls-1" d="m347.2,258.81c.37,1.08,1.19,1.8,2.37,2.2,1.19.37,3.08.58,5.69.58.24,0,.34.24.34.68s-.1.68-.34.68c-2.47,0-4.41-.03-5.86-.1l-8.54-.1-8.3.1c-1.46.07-3.46.1-6,.1-.24,0-.34-.24-.34-.68s.1-.68.34-.68c2.61,0,4.51-.2,5.69-.58s2-1.12,2.47-2.24c.47-1.12.68-2.81.68-5.12v-53.38c0-2.3-.24-4-.68-5.08-.47-1.08-1.29-1.83-2.47-2.24-1.19-.41-3.08-.64-5.69-.64-.24,0-.34-.24-.34-.68s.1-.68.34-.68l6,.1c3.39.17,6.13.24,8.3.24,2.37,0,5.25-.07,8.64-.24l5.76-.1c.24,0,.34.24.34.68s-.1.68-.34.68c-2.54,0-4.41.24-5.59.68-1.19.47-2,1.25-2.41,2.37s-.64,2.81-.64,5.12v53.1c0,2.37.2,4.1.58,5.19v.03Z"/>
            <path class="cls-1" d="m444.56,191.65c0,.47-.07.68-.24.68-3.08,0-5.46,1.08-7.15,3.29-1.69,2.2-2.54,5.32-2.54,9.39v59.58c0,.24-.2.37-.58.47-.37.07-.64.03-.81-.1l-54.02-62.8v46.9c0,4.07.81,7.18,2.41,9.32,1.63,2.14,3.97,3.22,7.02,3.22.17,0,.24.24.24.68s-.07.68-.24.68c-2.07,0-3.66-.03-4.71-.1l-6.1-.1-6.81.1c-1.22.07-2.98.1-5.29.1-.24,0-.34-.24-.34-.68s.1-.68.34-.68c3.29,0,5.86-1.08,7.66-3.22,1.8-2.14,2.71-5.25,2.71-9.32v-50.5c-2.17-2.3-4.1-3.93-5.83-4.85s-3.52-1.39-5.35-1.39c-.17,0-.24-.24-.24-.68s.07-.68.24-.68l4.61.1c.98.07,2.41.1,4.27.1l7.39-.1c.92-.07,2.03-.1,3.36-.1.61,0,1.08.17,1.39.47.3.31.78.92,1.39,1.83l2.78,3.69,41.48,48.83v-40.77c0-4.07-.81-7.18-2.41-9.39-1.63-2.2-3.93-3.29-6.91-3.29-.17,0-.24-.24-.24-.68s.07-.68.24-.68l4.71.1c2.44.17,4.51.24,6.1.24s3.63-.07,6.24-.24l5.08-.1s.24.24.24.68l-.07-.03Z"/>
            <path class="cls-1" d="m556.46,262.3c-.03.41-.17.64-.41.64h-16.81c-2.37,0-6.57-2.14-12.57-6.44-5.83,5.22-13.32,7.83-22.47,7.83-5.15,0-9.46-.78-12.91-2.37-3.46-1.56-6.03-3.63-7.73-6.17s-2.54-5.25-2.54-8.17c0-4,1.29-7.49,3.93-10.47,2.61-2.98,6.44-6.37,11.52-10.13-1.08-1.69-2.24-3.59-3.46-5.76-1.08-2.24-1.9-4.3-2.47-6.27-.58-1.97-.88-4-.88-6.17,0-3.83.88-7.29,2.61-10.37,1.73-3.08,4.17-5.49,7.35-7.25,3.19-1.76,6.88-2.64,11.12-2.64s8.03.98,10.78,2.95c2.71,1.97,4.1,4.81,4.1,8.57,0,3.08-.85,5.86-2.58,8.34-1.73,2.51-3.73,4.61-6.03,6.34-2.3,1.73-5.76,4.13-10.37,7.18,5.59,8.54,13.56,16.81,23.86,24.87,1.22-3.52,1.83-7.32,1.83-11.42s-.68-6.78-2-8.57c-1.36-1.8-3.66-2.71-6.98-2.71-.17,0-.24-.24-.3-.68-.03-.47.07-.68.3-.68l26.37-.1c.24,0,.34.24.34.68s-.1.68-.34.68c-2.37,0-4.2.24-5.42.75s-2.1,1.25-2.64,2.3-1.12,2.71-1.73,5.02c-2,6.98-4.3,12.57-6.91,16.71,4.91,3.63,9.39,6.51,13.42,8.71,4.03,2.2,7.25,3.56,9.62,4.1.3.07.44.34.41.75v-.03Zm-31.62-7.32c-1.53-1.15-2.88-2.2-4.03-3.12-4.24-3.39-8.37-7.08-12.44-11.12-4.07-4.03-7.59-8.03-10.61-12.03-4.37,4-6.57,8.37-6.57,13.15,0,3.08.85,5.96,2.54,8.64,1.69,2.68,4.1,4.85,7.25,6.44,3.15,1.63,6.74,2.41,10.81,2.41,5.15,0,9.49-1.46,13.01-4.37h.03Zm-19.35-35.01c3.08-2.68,5.46-5.46,7.15-8.3,1.69-2.85,2.54-6,2.54-9.46s-.81-6.03-2.47-7.96c-1.66-1.93-3.83-2.88-6.51-2.88-4.68,0-7.02,3.08-7.02,9.22s2.1,12.37,6.34,19.35l-.03.03Z"/>
            <path class="cls-1" d="m603.94,210.69c1.42,2.2,3.19,4.1,5.29,5.69,2.1,1.63,4.98,3.52,8.57,5.76,3.93,2.47,7.02,4.58,9.29,6.34s4.2,3.93,5.76,6.51c1.56,2.58,2.37,5.59,2.37,9.05,0,3.93-1.02,7.42-3.05,10.47-2.03,3.08-4.91,5.46-8.64,7.18-3.73,1.73-7.96,2.58-12.74,2.58-3.22,0-6.54-.41-9.96-1.25-3.42-.85-6-1.86-7.76-3.12-.68-.47-1.08-1.19-1.15-2.2l-.68-17.52v-.1c0-.31.2-.47.58-.51s.61.1.68.41c2.54,6.37,5.42,11.59,8.71,15.66,3.25,4.07,7.42,6.1,12.51,6.1,3.29,0,6.07-.92,8.3-2.71,2.24-1.8,3.36-4.81,3.36-9.05,0-3.39-.75-6.34-2.24-8.88-1.49-2.54-3.36-4.64-5.52-6.34-2.2-1.69-5.15-3.76-8.95-6.24-3.69-2.37-6.57-4.41-8.64-6.03-2.07-1.66-3.83-3.69-5.29-6.1-1.46-2.41-2.2-5.25-2.2-8.47,0-4,1.12-7.39,3.36-10.13,2.24-2.78,5.12-4.81,8.71-6.17,3.56-1.36,7.32-2,11.22-2,2.61,0,5.22.24,7.83.75s4.81,1.12,6.57,1.9c1.15.47,1.73,1.19,1.73,2.2l.34,15.66c0,.24-.2.37-.64.47-.41.07-.68,0-.75-.24-1.53-4.68-3.59-8.91-6.17-12.74-2.58-3.8-6.44-5.69-11.59-5.69-3.46,0-6.2.98-8.24,2.98-2.03,2-3.05,4.71-3.05,8.17,0,2.85.71,5.35,2.14,7.56l-.03.07Z"/>
            <path class="cls-1" d="m665.96,253.15c0,2.07.17,3.56.51,4.51.34.92,1.02,1.53,2.03,1.83.98.31,2.61.47,4.85.47h6.91c5.46,0,10.07-1.53,13.83-4.54,3.76-3.05,6.27-7.12,7.49-12.27.07-.24.3-.34.68-.31s.58.17.58.41c-.68,7.22-1.05,13.22-1.05,17.96,0,.61-.1,1.05-.34,1.32s-.68.41-1.39.41h-53.92s-.24-.24-.24-.68.07-.68.24-.68c2.61,0,4.51-.2,5.69-.58,1.19-.37,2-1.12,2.41-2.24.41-1.12.64-2.81.64-5.12v-53.38c0-2.3-.2-4-.64-5.08-.44-1.08-1.25-1.83-2.47-2.24s-3.12-.64-5.66-.64c-.17,0-.24-.24-.24-.68s.07-.68.24-.68l5.86.1c3.39.17,6.13.24,8.3.24,2.3,0,5.15-.07,8.54-.24l5.76-.1c.24,0,.34.24.34.68s-.1.68-.34.68c-2.54,0-4.41.2-5.59.64-1.19.41-2,1.19-2.41,2.3-.41,1.12-.64,2.81-.64,5.12v52.77h.03Z"/>
            <path class="cls-1" d="m729.06,259.32c-5.56-3.36-9.86-7.86-12.91-13.59s-4.54-11.96-4.54-18.71c0-7.9,2-14.67,6-20.33,4-5.66,9.12-9.9,15.39-12.74,6.27-2.85,12.64-4.27,19.18-4.27,7.29,0,13.73,1.69,19.25,5.12,5.52,3.42,9.76,7.93,12.74,13.52,2.95,5.59,4.44,11.56,4.44,17.86,0,6.98-1.83,13.42-5.52,19.25-3.69,5.83-8.61,10.44-14.81,13.83-6.2,3.39-12.88,5.08-20.1,5.08s-13.49-1.66-19.08-5.02h-.03Zm35.38-1.49c3.66-2.51,6.54-6.17,8.64-11.01,2.1-4.85,3.15-10.61,3.15-17.28,0-7.05-1.19-13.39-3.52-19.01-2.34-5.59-5.69-10-10.03-13.15-4.34-3.15-9.42-4.71-15.25-4.71-7.46,0-13.22,2.68-17.35,8-4.1,5.35-6.17,12.74-6.17,22.16,0,7.29,1.22,13.89,3.63,19.83,2.41,5.93,5.76,10.54,10.03,13.89,4.27,3.36,9.08,5.02,14.47,5.02,4.61,0,8.74-1.25,12.37-3.73h.03Z"/>
            <path class="cls-1" d="m876.45,262.27c0,.47-.2.68-.58.68-1.46,0-3.8-.07-7.02-.24-3.22-.14-5.56-.24-7.02-.24-1.93,0-4.2.07-6.81.24-2.61.17-4.64.24-6.1.24-.3,0-.47-.24-.47-.68s.14-.68.47-.68c2.24,0,3.86-.24,4.91-.75,1.05-.51,1.56-1.32,1.56-2.47s-.64-3.12-1.97-5.86l-8.74-17.76h-27.89l-5.52,12.44c-.98,2.3-1.49,4.37-1.49,6.24,0,2.68.95,4.71,2.88,6.1s4.61,2.07,8.07,2.07c.37,0,.58.24.58.68s-.2.68-.58.68c-1.39,0-3.39-.07-6-.24-2.91-.14-5.46-.24-7.59-.24s-4.51.07-7.25.24c-2.44.17-4.51.24-6.1.24-.37,0-.58-.24-.58-.68s.2-.68.58-.68c2.14,0,3.97-.41,5.42-1.25,1.46-.85,2.88-2.37,4.27-4.54,1.39-2.2,3.05-5.42,4.95-9.73l24.77-55.75c.14-.24.51-.34,1.05-.34s.85.1.92.34l28.23,56.9c2.68,5.52,4.95,9.32,6.74,11.35,1.8,2.03,3.73,3.05,5.83,3.05.37,0,.58.24.58.68l-.1-.03Zm-58.39-30.4h25.21l-13.25-26.84-12,26.84h.03Z"/>
            <path class="cls-1" d="m959.85,191.65c0,.47-.07.68-.24.68-3.08,0-5.46,1.08-7.15,3.29-1.69,2.2-2.54,5.32-2.54,9.39v59.58c0,.24-.2.37-.58.47-.37.07-.64.03-.81-.1l-54.02-62.8v46.9c0,4.07.81,7.18,2.41,9.32,1.63,2.14,3.97,3.22,7.02,3.22.17,0,.24.24.24.68s-.07.68-.24.68c-2.07,0-3.66-.03-4.71-.1l-6.1-.1-6.81.1c-1.22.07-2.98.1-5.29.1-.24,0-.34-.24-.34-.68s.1-.68.34-.68c3.29,0,5.86-1.08,7.66-3.22,1.8-2.14,2.71-5.25,2.71-9.32v-50.5c-2.17-2.3-4.1-3.93-5.83-4.85-1.73-.92-3.52-1.39-5.35-1.39-.17,0-.24-.24-.24-.68s.07-.68.24-.68l4.61.1c.98.07,2.41.1,4.27.1l7.39-.1c.91-.07,2.03-.1,3.36-.1.61,0,1.08.17,1.39.47.3.31.78.92,1.39,1.83l2.78,3.69,41.48,48.83v-40.77c0-4.07-.81-7.18-2.41-9.39-1.63-2.2-3.93-3.29-6.91-3.29-.17,0-.24-.24-.24-.68s.07-.68.24-.68l4.71.1c2.44.17,4.51.24,6.1.24s3.63-.07,6.24-.24l5.08-.1s.24.24.24.68l-.07-.03Z"/>
            <path class="cls-1" d="m1019.29,244.75c.24,0,.44.07.64.17.2.1.27.2.27.31-.78,5.83-1.15,11.18-1.15,16,0,.61-.1,1.05-.34,1.32s-.68.41-1.39.41h-49.99c-.24,0-.34-.24-.34-.68s.1-.68.34-.68c2.61,0,4.51-.2,5.69-.58s2-1.12,2.41-2.24.64-2.81.64-5.12v-53.38c0-2.3-.2-4-.64-5.08-.41-1.08-1.25-1.83-2.47-2.24-1.22-.41-3.12-.64-5.66-.64-.24,0-.34-.24-.34-.68s.1-.68.34-.68h47.92c.78,0,1.15.34,1.15,1.05l.24,14.98s-.2.27-.64.34c-.41.07-.68,0-.75-.24-1.83-8.74-7.18-13.15-16-13.15h-4.61c-2.78,0-4.71.51-5.86,1.49s-1.73,2.68-1.73,5.08v23.49h11.05c8.44,0,12.67-2.85,12.67-8.54,0-.24.2-.34.64-.34s.64.1.64.34l-.1,10.03.1,5.42c.14,2.47.24,4.44.24,6,0,.17-.24.24-.68.24s-.68-.07-.68-.24c0-6.61-4.3-9.9-12.91-9.9h-10.95v26.16c0,2.54.47,4.3,1.46,5.29.95.98,2.68,1.49,5.12,1.49h5.66c10.3,0,16.81-4.98,19.59-14.98,0-.14.17-.24.47-.24h-.07Z"/>
          </g>
          <g>
            <path class="cls-1" d="m380.75,299.75c.95,0,1.42-.03,2.2-.2-.41,5.29-.51,8.98-.51,18.94,0,3.29.14,9.52.34,12.74,1.02.03,1.53.03,2.2.03,3.73,0,8.4-.34,11.29-.81-.17.64-.2,1.05-.2,1.66,0,.54.03.85.2,1.42-1.56-.1-7.35-.2-9.62-.2-1.53,0-6.91.1-8.68.2.24-2.98.44-9.59.44-16.94,0-9.22-.03-11.49-.44-17.08,1.02.14,1.63.2,2.71.2l.07.03Z"/>
            <path class="cls-1" d="m445.54,316.87c0,10.64-7.25,17.39-18.71,17.39s-18.67-6.74-18.67-17.69,7.15-17.66,18.61-17.66,18.77,6.71,18.77,17.96h0Zm-29.59-10.95c-1.86,2.61-2.78,6.2-2.78,10.64s.92,8.03,2.78,10.68c2.3,3.42,6.3,5.39,10.88,5.39,8.51,0,13.73-6.03,13.73-15.83,0-4.68-.85-8.13-2.78-10.88-2.3-3.42-6.34-5.39-10.95-5.39s-8.47,1.93-10.88,5.39Z"/>
            <path class="cls-1" d="m464.28,298.91c.92.95,1.46,1.63,4.58,5.05,2,2.17,3.69,3.97,4.78,5.15,1.66,1.73,3.32,3.49,4.95,5.19,1.66,1.66,3.59,3.73,5.15,5.56,2.71,2.91,3.93,4.13,5.39,5.56v-1.25c.09-4.54.14-7.77.14-9.69,0-7.05-.1-11.9-.34-14.88.95.14,1.36.2,1.76.2.51,0,.92-.03,1.73-.2-.54,4.58-.92,14.4-.92,24.71,0,4.88,0,7.15.1,10h-.75c-3.39-4.13-11.79-13.45-20.33-22.33-1.42-1.46-2.78-2.88-4.13-4.34l-.61-.61-.07.92c-.1,10.34-.1,10.54-.1,11.86,0,4.78.2,10.64.44,13.86-.71-.14-1.15-.2-1.83-.2s-1.02.03-1.73.2c.34-2.47.64-8.98.81-17.49.09-4.41.14-8.46.14-12.17,0-2.71,0-3.63-.03-5.05h.81l.07-.03Z"/>
            <path class="cls-1" d="m514.81,299.75c.92,0,2.71-.03,5.25-.1,1.93-.03,4.03-.1,5.49-.1,5.86,0,9.18,1.05,12.17,3.83,3.08,2.88,4.68,6.95,4.68,11.9,0,6.03-2.37,11.29-6.51,14.57-3.42,2.68-7.22,3.73-13.52,3.73-.85,0-2.71-.03-4.44-.1-1.56-.03-2.68-.1-3.39-.1-1.25,0-2.14.03-3.59.2.24-2.1.51-10.68.51-17.28,0-7.22-.14-12.91-.51-16.74,1.42.14,2.2.2,3.83.2h.03Zm5.76,31.96c6.61,0,10.03-1.02,12.74-3.83,2.71-2.78,4.07-6.85,4.07-12.06s-1.25-8.71-3.8-11.18c-2.41-2.41-5.29-3.19-11.69-3.19-2.61,0-4.03.1-6.2.34-.1,1.93-.24,9.83-.24,13.93,0,6.34.1,13.22.3,15.59,1.76.31,2.91.41,4.78.41h.03Z"/>
            <path class="cls-1" d="m595.3,316.87c0,10.64-7.25,17.39-18.71,17.39s-18.67-6.74-18.67-17.69,7.15-17.66,18.61-17.66,18.77,6.71,18.77,17.96Zm-29.59-10.95c-1.86,2.61-2.78,6.2-2.78,10.64s.92,8.03,2.78,10.68c2.3,3.42,6.3,5.39,10.88,5.39,8.51,0,13.73-6.03,13.73-15.83,0-4.68-.85-8.13-2.78-10.88-2.3-3.42-6.34-5.39-10.95-5.39s-8.47,1.93-10.88,5.39Z"/>
            <path class="cls-1" d="m614.08,298.91c.92.95,1.46,1.63,4.58,5.05,2,2.17,3.69,3.97,4.78,5.15,1.66,1.73,3.32,3.49,4.95,5.19,1.66,1.66,3.59,3.73,5.15,5.56,2.71,2.91,3.93,4.13,5.39,5.56v-1.25c.09-4.54.14-7.77.14-9.69,0-7.05-.1-11.9-.34-14.88.95.14,1.36.2,1.76.2.51,0,.92-.03,1.73-.2-.54,4.58-.92,14.4-.92,24.71,0,4.88,0,7.15.1,10h-.75c-3.39-4.13-11.79-13.45-20.33-22.33-1.42-1.46-2.78-2.88-4.13-4.34l-.61-.61-.07.92c-.1,10.34-.1,10.54-.1,11.86,0,4.78.2,10.64.44,13.86-.71-.14-1.15-.2-1.83-.2s-1.02.03-1.73.2c.34-2.47.64-8.98.81-17.49.09-4.41.14-8.46.14-12.17,0-2.71,0-3.63-.03-5.05h.81l.07-.03Z"/>
          </g>
        </g>
      </g>
    </g>
  </g>
</svg>