<?xml version="1.0" encoding="UTF-8"?>
<svg id="Layer_2" data-name="Layer 2" xmlns="http://www.w3.org/2000/svg" viewBox="0 0 310 50">
  <defs>
    <style>
      .cls-1, .cls-2 {
        stroke-width: 0px;
        fill: #444444;
      }

      .cls-2 {
        fill: none;
      }
    </style>
  </defs>
  <g id="Layer_1-2" data-name="Layer 1">
    <g>
      <g>
        <path class="cls-1" d="m10.31,24.41c-1.89-.97-3.34-2.29-4.33-3.96-1-1.67-1.5-3.52-1.5-5.56,0-2.18.57-4.1,1.7-5.78,1.13-1.68,2.7-2.97,4.69-3.89,1.99-.92,4.23-1.38,6.7-1.38,1.13,0,2.24.09,3.31.27,1.08.18,1.95.44,2.63.78.2.09.32.17.36.24.03.07.06.25.09.54l.44,4.49c0,.07-.06.11-.19.14-.12.02-.2-.01-.22-.1-.48-1.43-1.35-2.74-2.62-3.93-1.27-1.19-2.9-1.78-4.9-1.78-1.56,0-2.99.4-4.27,1.19-1.28.79-2.29,1.93-3.03,3.42-.74,1.48-1.1,3.2-1.1,5.15,0,2.06.4,3.94,1.21,5.63.8,1.69,1.95,3.02,3.43,3.99,1.48.97,3.19,1.46,5.12,1.46.97,0,1.73-.11,2.28-.34.54-.23.94-.63,1.19-1.22.25-.59.37-1.45.37-2.58s-.07-2-.2-2.46c-.14-.46-.44-.78-.9-.93-.46-.16-1.28-.24-2.43-.24-.14,0-.2-.09-.2-.27,0-.07.02-.13.05-.19s.07-.09.12-.09c1.88.11,3.39.17,4.52.17s2.31-.03,3.54-.1c.05,0,.09.03.12.09.03.06.05.11.05.15,0,.16-.06.24-.17.24-.45-.02-.77.05-.95.22-.18.17-.3.52-.36,1.04-.06.52-.08,1.43-.08,2.72,0,1.02.04,1.75.12,2.18.08.43.12.7.12.82,0,.14-.02.23-.07.27-.05.05-.15.09-.31.14-2.86.63-5.41.95-7.65.95-2.56,0-4.79-.49-6.68-1.46Z"/>
        <path class="cls-1" d="m51.66,25.26c0,.14-.03.2-.1.2h-5.47c-.52,0-1.49-.91-2.91-2.72-1.42-1.81-3.13-4.35-5.15-7.61-.5.05-.88.07-1.16.07-.5,0-1.09-.02-1.77-.07v7.58c0,.7.06,1.21.19,1.53.12.32.36.53.71.65.35.11.91.17,1.68.17.05,0,.07.07.07.2s-.02.2-.07.2c-.75,0-1.33-.01-1.73-.03l-2.52-.03-2.45.03c-.43.02-1.02.03-1.77.03-.07,0-.1-.07-.1-.2s.03-.2.1-.2c.77,0,1.33-.06,1.68-.17.35-.11.59-.33.73-.66.14-.33.2-.83.2-1.51V6.97c0-.68-.06-1.18-.19-1.5-.12-.32-.37-.54-.73-.66-.36-.12-.92-.19-1.67-.19-.05,0-.07-.07-.07-.2s.02-.2.07-.2l1.77.03c1,.05,1.8.07,2.41.07.75,0,1.56-.03,2.45-.1.29-.02.65-.05,1.07-.07.42-.02.89-.03,1.41-.03,1.97,0,3.5.39,4.57,1.16,1.08.77,1.61,1.85,1.61,3.23,0,1.25-.35,2.37-1.04,3.37-.69,1-1.62,1.79-2.77,2.38,1.86,2.74,3.41,4.88,4.66,6.42,1.25,1.54,2.35,2.66,3.31,3.35.96.69,1.91,1.04,2.84,1.04.07,0,.1.07.1.2Zm-14.58-10.91c1.47,0,2.53-.37,3.16-1.1.63-.74.95-1.92.95-3.55,0-1.84-.31-3.12-.93-3.84-.62-.72-1.52-1.09-2.7-1.09-.88,0-1.51.16-1.89.49-.37.33-.56.92-.56,1.78v7.17c.54.09,1.2.14,1.97.14Z"/>
        <path class="cls-1" d="m59.17,24.24c.11.32.35.53.7.65.35.11.91.17,1.68.17.07,0,.1.07.1.2s-.03.2-.1.2c-.73,0-1.3-.01-1.73-.03l-2.52-.03-2.45.03c-.43.02-1.02.03-1.77.03-.07,0-.1-.07-.1-.2s.03-.2.1-.2c.77,0,1.33-.06,1.68-.17.35-.11.59-.33.73-.66.14-.33.2-.83.2-1.51V6.97c0-.68-.07-1.18-.2-1.5-.14-.32-.38-.54-.73-.66-.35-.12-.91-.19-1.68-.19-.07,0-.1-.07-.1-.2s.03-.2.1-.2l1.77.03c1,.05,1.81.07,2.45.07.7,0,1.55-.02,2.55-.07l1.7-.03c.07,0,.1.07.1.2s-.03.2-.1.2c-.75,0-1.3.07-1.65.2-.35.14-.59.37-.71.7-.12.33-.19.83-.19,1.51v15.67c0,.7.06,1.21.17,1.53Z"/>
        <path class="cls-1" d="m79.43,8.94s-.06.08-.19.1c-.12.02-.2,0-.22-.07-.54-2.58-2.12-3.88-4.72-3.88h-1.36c-.82,0-1.39.15-1.73.44-.34.29-.51.78-.51,1.46v7.38h2.79c2.54,0,3.81-.85,3.81-2.55,0-.04.07-.07.2-.07s.2.02.2.07l-.03,2.99c0,.7.01,1.22.03,1.56l.03,1.77c0,.07-.07.1-.2.1s-.2-.03-.2-.1c0-1.93-1.3-2.89-3.91-2.89h-2.72v7.31c0,.73.09,1.25.27,1.58.18.33.54.56,1.07.7.53.14,1.35.2,2.46.2.05,0,.07.07.07.2s-.02.2-.07.2c-.93,0-1.65-.01-2.18-.03l-3.33-.03-2.48.03c-.43.02-1.03.03-1.8.03-.07,0-.1-.07-.1-.2s.03-.2.1-.2c.82,0,1.41-.06,1.78-.17.37-.11.63-.33.77-.66.14-.33.2-.83.2-1.51V6.97c0-.68-.06-1.18-.19-1.5-.12-.32-.37-.54-.73-.66-.36-.12-.92-.19-1.67-.19-.07,0-.1-.07-.1-.2s.03-.2.1-.2h14.14c.23,0,.34.1.34.31l.07,4.42Z"/>
        <path class="cls-1" d="m97.38,8.94s-.06.08-.19.1c-.12.02-.2,0-.22-.07-.54-2.58-2.12-3.88-4.72-3.88h-1.36c-.82,0-1.39.15-1.73.44-.34.29-.51.78-.51,1.46v7.38h2.79c2.54,0,3.81-.85,3.81-2.55,0-.04.07-.07.2-.07s.2.02.2.07l-.03,2.99c0,.7.01,1.22.03,1.56l.03,1.77c0,.07-.07.1-.2.1s-.2-.03-.2-.1c0-1.93-1.3-2.89-3.91-2.89h-2.72v7.31c0,.73.09,1.25.27,1.58.18.33.54.56,1.07.7.53.14,1.35.2,2.46.2.05,0,.07.07.07.2s-.02.2-.07.2c-.93,0-1.65-.01-2.18-.03l-3.33-.03-2.48.03c-.43.02-1.03.03-1.8.03-.07,0-.1-.07-.1-.2s.03-.2.1-.2c.82,0,1.41-.06,1.78-.17.37-.11.63-.33.77-.66.14-.33.2-.83.2-1.51V6.97c0-.68-.06-1.18-.19-1.5-.12-.32-.37-.54-.73-.66-.36-.12-.92-.19-1.67-.19-.07,0-.1-.07-.1-.2s.03-.2.1-.2h14.14c.23,0,.34.1.34.31l.07,4.42Z"/>
        <path class="cls-1" d="m106.93,24.24c.11.32.35.53.7.65.35.11.91.17,1.68.17.07,0,.1.07.1.2s-.03.2-.1.2c-.73,0-1.3-.01-1.73-.03l-2.52-.03-2.45.03c-.43.02-1.02.03-1.77.03-.07,0-.1-.07-.1-.2s.03-.2.1-.2c.77,0,1.33-.06,1.68-.17.35-.11.59-.33.73-.66.14-.33.2-.83.2-1.51V6.97c0-.68-.07-1.18-.2-1.5-.14-.32-.38-.54-.73-.66-.35-.12-.91-.19-1.68-.19-.07,0-.1-.07-.1-.2s.03-.2.1-.2l1.77.03c1,.05,1.81.07,2.45.07.7,0,1.55-.02,2.55-.07l1.7-.03c.07,0,.1.07.1.2s-.03.2-.1.2c-.75,0-1.3.07-1.65.2-.35.14-.59.37-.71.7-.12.33-.19.83-.19,1.51v15.67c0,.7.06,1.21.17,1.53Z"/>
        <path class="cls-1" d="m135.66,4.42c0,.14-.02.2-.07.2-.91,0-1.61.32-2.11.97-.5.65-.75,1.57-.75,2.77v17.58c0,.07-.06.11-.17.14-.11.02-.19.01-.24-.03l-15.94-18.53v13.84c0,1.2.24,2.12.71,2.75.48.63,1.17.95,2.07.95.05,0,.07.07.07.2s-.02.2-.07.2c-.61,0-1.08-.01-1.39-.03l-1.8-.03-2.01.03c-.36.02-.88.03-1.56.03-.07,0-.1-.07-.1-.2s.03-.2.1-.2c.97,0,1.73-.32,2.26-.95.53-.63.8-1.55.8-2.75V6.46c-.64-.68-1.21-1.16-1.72-1.43-.51-.27-1.04-.41-1.58-.41-.05,0-.07-.07-.07-.2s.02-.2.07-.2l1.36.03c.29.02.71.03,1.26.03l2.18-.03c.27-.02.6-.03.99-.03.18,0,.32.05.41.14.09.09.23.27.41.54l.82,1.09,12.24,14.41v-12.03c0-1.2-.24-2.12-.71-2.77-.48-.65-1.16-.97-2.04-.97-.05,0-.07-.07-.07-.2s.02-.2.07-.2l1.39.03c.72.05,1.33.07,1.8.07s1.07-.02,1.84-.07l1.5-.03s.07.07.07.2Z"/>
        <path class="cls-1" d="m168.68,25.27c-.01.12-.05.19-.12.19h-4.96c-.7,0-1.94-.63-3.71-1.9-1.72,1.54-3.93,2.31-6.63,2.31-1.52,0-2.79-.23-3.81-.7-1.02-.46-1.78-1.07-2.28-1.82-.5-.75-.75-1.55-.75-2.41,0-1.18.38-2.21,1.16-3.09.77-.88,1.9-1.88,3.4-2.99-.32-.5-.66-1.06-1.02-1.7-.32-.66-.56-1.27-.73-1.85-.17-.58-.26-1.18-.26-1.82,0-1.13.26-2.15.77-3.06.51-.91,1.23-1.62,2.17-2.14.94-.52,2.03-.78,3.28-.78,1.31,0,2.37.29,3.18.87.8.58,1.21,1.42,1.21,2.53,0,.91-.25,1.73-.76,2.46-.51.74-1.1,1.36-1.78,1.87-.68.51-1.7,1.22-3.06,2.12,1.65,2.52,4,4.96,7.04,7.34.36-1.04.54-2.16.54-3.37s-.2-2-.59-2.53c-.4-.53-1.08-.8-2.06-.8-.05,0-.07-.07-.09-.2-.01-.14.02-.2.09-.2l7.78-.03c.07,0,.1.07.1.2s-.03.2-.1.2c-.7,0-1.24.07-1.6.22s-.62.37-.78.68-.33.8-.51,1.48c-.59,2.06-1.27,3.71-2.04,4.93,1.45,1.07,2.77,1.92,3.96,2.57,1.19.65,2.14,1.05,2.84,1.21.09.02.13.1.12.22Zm-9.33-2.16c-.45-.34-.85-.65-1.19-.92-1.25-1-2.47-2.09-3.67-3.28s-2.24-2.37-3.13-3.55c-1.29,1.18-1.94,2.47-1.94,3.88,0,.91.25,1.76.75,2.55.5.79,1.21,1.43,2.14,1.9.93.48,1.99.71,3.19.71,1.52,0,2.8-.43,3.84-1.29Zm-5.71-10.33c.91-.79,1.61-1.61,2.11-2.45.5-.84.75-1.77.75-2.79s-.24-1.78-.73-2.35c-.49-.57-1.13-.85-1.92-.85-1.38,0-2.07.91-2.07,2.72s.62,3.65,1.87,5.71Z"/>
        <path class="cls-1" d="m182.69,10.04c.42.65.94,1.21,1.56,1.68.62.48,1.47,1.04,2.53,1.7,1.16.73,2.07,1.35,2.74,1.87.67.52,1.24,1.16,1.7,1.92.46.76.7,1.65.7,2.67,0,1.16-.3,2.19-.9,3.09-.6.91-1.45,1.61-2.55,2.12-1.1.51-2.35.76-3.76.76-.95,0-1.93-.12-2.94-.37-1.01-.25-1.77-.55-2.29-.92-.2-.14-.32-.35-.34-.65l-.2-5.17v-.03c0-.09.06-.14.17-.15.11-.01.18.03.2.12.75,1.88,1.6,3.42,2.57,4.62.96,1.2,2.19,1.8,3.69,1.8.97,0,1.79-.27,2.45-.8.66-.53.99-1.42.99-2.67,0-1-.22-1.87-.66-2.62-.44-.75-.99-1.37-1.63-1.87-.65-.5-1.52-1.11-2.64-1.84-1.09-.7-1.94-1.3-2.55-1.78-.61-.49-1.13-1.09-1.56-1.8-.43-.71-.65-1.55-.65-2.5,0-1.18.33-2.18.99-2.99.66-.82,1.51-1.42,2.57-1.82,1.05-.4,2.16-.59,3.31-.59.77,0,1.54.07,2.31.22.77.15,1.42.33,1.94.56.34.14.51.35.51.65l.1,4.62c0,.07-.06.11-.19.14-.12.02-.2,0-.22-.07-.45-1.38-1.06-2.63-1.82-3.76-.76-1.12-1.9-1.68-3.42-1.68-1.02,0-1.83.29-2.43.88-.6.59-.9,1.39-.9,2.41,0,.84.21,1.58.63,2.23Z"/>
        <path class="cls-1" d="m200.99,22.57c0,.61.05,1.05.15,1.33.1.27.3.45.6.54.29.09.77.14,1.43.14h2.04c1.61,0,2.97-.45,4.08-1.34,1.11-.9,1.85-2.1,2.21-3.62.02-.07.09-.1.2-.09.11.01.17.05.17.12-.2,2.13-.31,3.9-.31,5.3,0,.18-.03.31-.1.39-.07.08-.2.12-.41.12h-15.91s-.07-.07-.07-.2.02-.2.07-.2c.77,0,1.33-.06,1.68-.17.35-.11.59-.33.71-.66.12-.33.19-.83.19-1.51V6.97c0-.68-.06-1.18-.19-1.5-.13-.32-.37-.54-.73-.66-.36-.12-.92-.19-1.67-.19-.05,0-.07-.07-.07-.2s.02-.2.07-.2l1.73.03c1,.05,1.81.07,2.45.07.68,0,1.52-.02,2.52-.07l1.7-.03c.07,0,.1.07.1.2s-.03.2-.1.2c-.75,0-1.3.06-1.65.19-.35.12-.59.35-.71.68-.12.33-.19.83-.19,1.51v15.57Z"/>
        <path class="cls-1" d="m219.61,24.39c-1.64-.99-2.91-2.32-3.81-4.01-.9-1.69-1.34-3.53-1.34-5.52,0-2.33.59-4.33,1.77-6,1.18-1.67,2.69-2.92,4.54-3.76,1.85-.84,3.73-1.26,5.66-1.26,2.15,0,4.05.5,5.68,1.51,1.63,1.01,2.88,2.34,3.76,3.99.87,1.65,1.31,3.41,1.31,5.27,0,2.06-.54,3.96-1.63,5.68-1.09,1.72-2.54,3.08-4.37,4.08-1.83,1-3.8,1.5-5.93,1.5s-3.98-.49-5.63-1.48Zm10.44-.44c1.08-.74,1.93-1.82,2.55-3.25.62-1.43.93-3.13.93-5.1,0-2.08-.35-3.95-1.04-5.61-.69-1.65-1.68-2.95-2.96-3.88-1.28-.93-2.78-1.39-4.5-1.39-2.2,0-3.9.79-5.12,2.36-1.21,1.58-1.82,3.76-1.82,6.54,0,2.15.36,4.1,1.07,5.85.71,1.75,1.7,3.11,2.96,4.1,1.26.99,2.68,1.48,4.27,1.48,1.36,0,2.58-.37,3.65-1.1Z"/>
        <path class="cls-1" d="m263.1,25.26c0,.14-.06.2-.17.2-.43,0-1.12-.02-2.07-.07-.95-.04-1.64-.07-2.07-.07-.57,0-1.24.02-2.01.07-.77.05-1.37.07-1.8.07-.09,0-.14-.07-.14-.2s.04-.2.14-.2c.66,0,1.14-.07,1.45-.22.31-.15.46-.39.46-.73s-.19-.92-.58-1.73l-2.58-5.24h-8.23l-1.63,3.67c-.29.68-.44,1.29-.44,1.84,0,.79.28,1.39.85,1.8s1.36.61,2.38.61c.11,0,.17.07.17.2s-.06.2-.17.2c-.41,0-1-.02-1.77-.07-.86-.04-1.61-.07-2.24-.07s-1.33.02-2.14.07c-.72.05-1.33.07-1.8.07-.11,0-.17-.07-.17-.2s.06-.2.17-.2c.63,0,1.17-.12,1.6-.37.43-.25.85-.7,1.26-1.34.41-.65.9-1.6,1.46-2.87l7.31-16.45c.04-.07.15-.1.31-.1s.25.03.27.1l8.33,16.79c.79,1.63,1.46,2.75,1.99,3.35.53.6,1.1.9,1.72.9.11,0,.17.07.17.2Zm-17.23-8.97h7.44l-3.91-7.92-3.54,7.92Z"/>
        <path class="cls-1" d="m287.71,4.42c0,.14-.02.2-.07.2-.91,0-1.61.32-2.11.97-.5.65-.75,1.57-.75,2.77v17.58c0,.07-.06.11-.17.14-.11.02-.19.01-.24-.03l-15.94-18.53v13.84c0,1.2.24,2.12.71,2.75.48.63,1.17.95,2.07.95.05,0,.07.07.07.2s-.02.2-.07.2c-.61,0-1.08-.01-1.39-.03l-1.8-.03-2.01.03c-.36.02-.88.03-1.56.03-.07,0-.1-.07-.1-.2s.03-.2.1-.2c.97,0,1.73-.32,2.26-.95.53-.63.8-1.55.8-2.75V6.46c-.64-.68-1.21-1.16-1.72-1.43-.51-.27-1.04-.41-1.58-.41-.05,0-.07-.07-.07-.2s.02-.2.07-.2l1.36.03c.29.02.71.03,1.26.03l2.18-.03c.27-.02.6-.03.99-.03.18,0,.32.05.41.14.09.09.23.27.41.54l.82,1.09,12.24,14.41v-12.03c0-1.2-.24-2.12-.71-2.77-.48-.65-1.16-.97-2.04-.97-.05,0-.07-.07-.07-.2s.02-.2.07-.2l1.39.03c.72.05,1.33.07,1.8.07s1.07-.02,1.84-.07l1.5-.03s.07.07.07.2Z"/>
        <path class="cls-1" d="m305.25,20.09c.07,0,.13.02.19.05.06.03.08.06.08.09-.23,1.72-.34,3.3-.34,4.72,0,.18-.03.31-.1.39-.07.08-.2.12-.41.12h-14.75c-.07,0-.1-.07-.1-.2s.03-.2.1-.2c.77,0,1.33-.06,1.68-.17.35-.11.59-.33.71-.66.12-.33.19-.83.19-1.51V6.97c0-.68-.06-1.18-.19-1.5-.12-.32-.37-.54-.73-.66-.36-.12-.92-.19-1.67-.19-.07,0-.1-.07-.1-.2s.03-.2.1-.2h14.14c.23,0,.34.1.34.31l.07,4.42s-.06.08-.19.1c-.12.02-.2,0-.22-.07-.54-2.58-2.12-3.88-4.72-3.88h-1.36c-.82,0-1.39.15-1.73.44-.34.29-.51.79-.51,1.5v6.93h3.26c2.49,0,3.74-.84,3.74-2.52,0-.07.06-.1.19-.1s.19.03.19.1l-.03,2.96.03,1.6c.04.73.07,1.31.07,1.77,0,.05-.07.07-.2.07s-.2-.02-.2-.07c0-1.95-1.27-2.92-3.81-2.92h-3.23v7.72c0,.75.14,1.27.43,1.56.28.29.79.44,1.51.44h1.67c3.04,0,4.96-1.47,5.78-4.42,0-.04.05-.07.14-.07Z"/>
      </g>
      <g>
        <path class="cls-1" d="m116.83,36.32c.28,0,.42-.01.65-.06-.12,1.56-.15,2.65-.15,5.59,0,.97.04,2.81.1,3.76.3.01.45.01.65.01,1.1,0,2.48-.1,3.33-.24-.05.19-.06.31-.06.49,0,.16.01.25.06.42-.46-.03-2.17-.06-2.84-.06-.45,0-2.04.03-2.56.06.07-.88.13-2.83.13-5,0-2.72-.01-3.39-.13-5.04.3.04.48.06.8.06Z"/>
        <path class="cls-1" d="m135.95,41.37c0,3.14-2.14,5.13-5.52,5.13s-5.51-1.99-5.51-5.22,2.11-5.21,5.49-5.21,5.54,1.98,5.54,5.3Zm-8.73-3.23c-.55.77-.82,1.83-.82,3.14s.27,2.37.82,3.15c.68,1.01,1.86,1.59,3.21,1.59,2.51,0,4.05-1.78,4.05-4.67,0-1.38-.25-2.4-.82-3.21-.68-1.01-1.87-1.59-3.23-1.59s-2.5.57-3.21,1.59Z"/>
        <path class="cls-1" d="m141.48,36.07c.27.28.43.48,1.35,1.49.59.64,1.09,1.17,1.41,1.52.49.51.98,1.03,1.46,1.53.49.49,1.06,1.1,1.52,1.64.8.86,1.16,1.22,1.59,1.64v-.37q.04-2.01.04-2.86c0-2.08-.03-3.51-.1-4.39.28.04.4.06.52.06.15,0,.27-.01.51-.06-.16,1.35-.27,4.25-.27,7.29,0,1.44,0,2.11.03,2.95h-.22c-1-1.22-3.48-3.97-6-6.59-.42-.43-.82-.85-1.22-1.28l-.18-.18-.02.27c-.03,3.05-.03,3.11-.03,3.5,0,1.41.06,3.14.13,4.09-.21-.04-.34-.06-.54-.06s-.3.01-.51.06c.1-.73.19-2.65.24-5.16q.04-1.95.04-3.59c0-.8,0-1.07-.01-1.49h.24Z"/>
        <path class="cls-1" d="m156.39,36.32c.27,0,.8-.01,1.55-.03.57-.01,1.19-.03,1.62-.03,1.73,0,2.71.31,3.59,1.13.91.85,1.38,2.05,1.38,3.51,0,1.78-.7,3.33-1.92,4.3-1.01.79-2.13,1.1-3.99,1.1-.25,0-.8-.01-1.31-.03-.46-.01-.79-.03-1-.03-.37,0-.63.01-1.06.06.07-.62.15-3.15.15-5.1,0-2.13-.04-3.81-.15-4.94.42.04.65.06,1.13.06Zm1.7,9.43c1.95,0,2.96-.3,3.76-1.13.8-.82,1.2-2.02,1.2-3.56s-.37-2.57-1.12-3.3c-.71-.71-1.56-.94-3.45-.94-.77,0-1.19.03-1.83.1-.03.57-.07,2.9-.07,4.11,0,1.87.03,3.9.09,4.6.52.09.86.12,1.41.12Z"/>
        <path class="cls-1" d="m180.14,41.37c0,3.14-2.14,5.13-5.52,5.13s-5.51-1.99-5.51-5.22,2.11-5.21,5.49-5.21,5.54,1.98,5.54,5.3Zm-8.73-3.23c-.55.77-.82,1.83-.82,3.14s.27,2.37.82,3.15c.68,1.01,1.86,1.59,3.21,1.59,2.51,0,4.05-1.78,4.05-4.67,0-1.38-.25-2.4-.82-3.21-.68-1.01-1.87-1.59-3.23-1.59s-2.5.57-3.21,1.59Z"/>
        <path class="cls-1" d="m185.68,36.07c.27.28.43.48,1.35,1.49.59.64,1.09,1.17,1.41,1.52.49.51.98,1.03,1.46,1.53.49.49,1.06,1.1,1.52,1.64.8.86,1.16,1.22,1.59,1.64v-.37q.04-2.01.04-2.86c0-2.08-.03-3.51-.1-4.39.28.04.4.06.52.06.15,0,.27-.01.51-.06-.16,1.35-.27,4.25-.27,7.29,0,1.44,0,2.11.03,2.95h-.22c-1-1.22-3.48-3.97-6-6.59-.42-.43-.82-.85-1.22-1.28l-.18-.18-.02.27c-.03,3.05-.03,3.11-.03,3.5,0,1.41.06,3.14.13,4.09-.21-.04-.34-.06-.54-.06s-.3.01-.51.06c.1-.73.19-2.65.24-5.16q.04-1.95.04-3.59c0-.8,0-1.07-.01-1.49h.24Z"/>
      </g>
    </g>
    <rect class="cls-2" width="310" height="50"/>
  </g>
</svg>